<ttFont>
          <CharString index="0">
            rmoveto
            -59 -42 -33 -54 -11 hvcurveto
            -104 callgsubr
            -90 callgsubr
            return
          </CharString>
          <CharString index="1">
            rmoveto
            256 198 132 225 105 hvcurveto
            53 113 27 127 140 vvcurveto
            280 -157 156 -279 -256 -197 -131 -227 -107 vhcurveto
            -53 -113 -26 -126 -140 -43 callsubr
            vhcurveto
            158 882 -97 callsubr
          </CharString>
          <CharString index="2">
            -70 callgsubr
            59 vlineto
            395 214 148 268 95 -36 -26 callsubr
            -127 hhcurveto
            -255 -199 -118 -227 -112 hvcurveto
            -55 -113 -28 -126 -141 vvcurveto
            -141 39 -110 79 -79 vhcurveto
            -79 79 110 -39 141 hhcurveto
            85 74 7 15 65 hvcurveto
            65 15 69 27 75 38 -11 callsubr
            return
          </CharString>
          <CharString index="3">
            vstem
            1396 -24 callsubr
            -388 hlineto
            -101 -474 -10 -48 -13 -36 -16 -24 rlinecurve
            -61 144 -165 438 rlineto
            -432 hlineto
            56 -134 75 -176 59 -139 -233 -82 -59 -155 -30 -138 -100 -471 rcurveline
            -20 callsubr
            101 474 11 51 10 34 22 25 rlinecurve
            226 -584 rlineto
            433 hlineto
            -58 135 -73 174 -59 141 233 81 55 154 30 139 rrcurveto
            return
          </CharString>
          <CharString index="4">
            rmoveto
            284 hlineto
            66 35 82 52 97 69 98 69 64 52 30 36 rrcurveto
            15 -439 vlineto
            -106 -135 -94 -102 -82 -68 rrcurveto
            return
          </CharString>
          <CharString index="5">
            rmoveto
            25 vlineto
            -43 97 -32 101 -19 105 rrcurveto
            -396 -21 hlineto
            21 -43 34 -49 47 -56 47 -56 50 -53 55 -50 rrcurveto
            return
          </CharString>
          <CharString index="6">
            -25 callsubr
            103 20 94 41 84 hvcurveto
            85 41 46 42 51 hhcurveto
            56 26 -57 -87 -93 callsubr
          </CharString>
          <CharString index="7">
            113 -67 -83 47 -112 -98 callgsubr
            return
          </CharString>
          <CharString index="8">
            rmoveto
            125 39 callsubr
            -87 callgsubr
            950 1010 rmoveto
            17 -424 rlineto
            -85 callgsubr
            endchar
          </CharString>
          <CharString index="9">
            -177 -37 -67 -85 -125 hhcurveto
            -81 -40 42 85 31 5 39 9 45 hvcurveto
            195 913 32 callgsubr
            -199 -923 rlineto
            -8 -43 -4 -43 -43 vvcurveto
            -4 -244 186 -191 268 5 rrcurveto
            380 217 175 375 79 hvcurveto
            endchar
          </CharString>
          <CharString index="10">
            rmoveto
            53 33 -45 -88 -121 -20 -106 -40 -93 hvcurveto
            -93 -40 -47 -46 -54 hhcurveto
            -56 -28 44 89 120 19 106 39 93 hvcurveto
            93 39 47 47 55 hhcurveto
            endchar
          </CharString>
          <CharString index="11">
            164 vstem
            113 731 rmoveto
            -132 33 -124 65 -116 vhcurveto
            66 -116 91 -92 116 -69 rrcurveto
            -68 116 127 -34 137 hhcurveto
            139 127 35 69 117 hvcurveto
            117 69 90 93 65 115 rrcurveto
            65 115 32 124 131 vvcurveto
            135 -34 125 -67 117 vhcurveto
            -67 117 -92 91 -117 67 rrcurveto
            67 -117 -125 33 -133 hhcurveto
            -133 -125 -33 -66 -116 hvcurveto
            -116 -66 -92 -92 -68 -117 rrcurveto
            -67 -117 -34 -126 -135 vvcurveto
            163 hmoveto
            105 26 97 51 91 vhcurveto
            52 91 72 71 91 53 rrcurveto
            53 92 99 27 105 hhcurveto
            105 98 -26 -53 91 hvcurveto
            91 -52 72 -72 52 -91 rrcurveto
            53 -91 26 -98 -105 vvcurveto
            -107 -27 -99 -53 -91 vhcurveto
            -53 -91 -71 -71 -91 -52 rrcurveto
            -51 -91 -97 -26 -105 hhcurveto
            -105 -99 26 53 -91 hvcurveto
            -91 53 -71 71 -53 91 rrcurveto
            -52 91 -26 98 105 vvcurveto
            return
          </CharString>
          <CharString index="12">
            -87 53 -40 117 134 67 63 126 83 -57 42 -113 return
          </CharString>
          <CharString index="13">
            -13 -158 rlineto
            310 hlineto
            239 -17 callgsubr
            -2 callsubr
            -116 -551 rlineto
            -181 -39 -67 -112 -79 hhcurveto
            -41 -35 27 59 39 6 47 13 55 hvcurveto
            endchar
          </CharString>
          <CharString index="14">
            -63 -9 -64 -18 -65 hvcurveto
            -18 -65 -24 -53 -31 -39 rrcurveto
            -39 -30 -32 -19 -33 hhcurveto
            endchar
          </CharString>
          <CharString index="15">
            -22 callgsubr
            hintmask 10111000
            -98 callsubr
          </CharString>
          <CharString index="16">
            868 hlineto
            68 -39 callgsubr
            444 hlineto
            72 -61 callgsubr
            65 317 rlineto
            return
          </CharString>
          <CharString index="17">
            -97 callgsubr
            -24 callgsubr
            return
          </CharString>
          <CharString index="18">
            -65 callgsubr
            60 hhcurveto
            return
          </CharString>
          <CharString index="19">
            1579 -103 callsubr
            return
          </CharString>
          <CharString index="20">
            1579 -102 callsubr
            return
          </CharString>
          <CharString index="21">
            -23 callsubr
            -99 callgsubr
            return
          </CharString>
          <CharString index="22">
            -42 -80 callsubr
            return
          </CharString>
          <CharString index="23">
            7 59 22 52 35 46 rrcurveto
            47 35 38 23 41 hhcurveto
            59 25 -33 -43 -91 -88 -60 -145 hvcurveto
            return
          </CharString>
          <CharString index="24">
            1562 -107 callsubr
            return
          </CharString>
          <CharString index="25">
            1583 rmoveto
            -59 -85 callsubr
            hintmask 10100000
            -104 callgsubr
            hintmask 01100000
            -7 callsubr
          </CharString>
          <CharString index="26">
            -61 -60 -56 -54 -53 -48 rrcurveto
            -23 274 vlineto
            return
          </CharString>
          <CharString index="27">
            -33 -54 -11 hvcurveto
            return
          </CharString>
          <CharString index="28">
            27 5 34 121 168 hhcurveto
            168 -32 -182 -176 -38 hvcurveto
            -174 -37 -47 -194 -168 hhcurveto
            -228 -223 22 0 hvcurveto
            -63 -293 rlineto
            0 168 -29 281 303 290 112 556 118 vhcurveto
            -61 callsubr
            -81 -377 274 -47 152 -10 rrcurveto
            return
          </CharString>
          <CharString index="29">
            -104 70 -48 104 173 77 73 157 100 -68 55 -112 -152 -92 -88 -145 vhcurveto
            return
          </CharString>
          <CharString index="30">
            -38 -99 hhcurveto
            -36 -39 6 12 -42 -29 callsubr
            243 146 119 256 57 hvcurveto
            return
          </CharString>
          <CharString index="31">
            34 52 11 hvcurveto
            return
          </CharString>
          <CharString index="32">
            43 callsubr
            162 -1121 -23 -41 rlineto
            -104 -57 -68 -47 -116 hhcurveto
            -42 -36 4 8 -31 hvcurveto
            -307 vlineto
            -11 41 52 -6 61 hhcurveto
            123 103 27 55 85 hvcurveto
            85 55 74 89 64 123 670 1276 rcurveline
            -416 hlineto
            -151 -341 -79 -182 -9 -23 -9 -22 -16 -55 -25 -88 rrcurveto
            -8 87 hlineto
            return
          </CharString>
          <CharString index="33">
            -21 -51 callsubr
            -20 return
          </CharString>
          <CharString index="34">
            1491 rmoveto
            -47 callsubr
            -77 25 -61 49 -46 vhcurveto
            -45 49 65 -23 81 hhcurveto
            79 65 23 47 49 hvcurveto
            50 47 25 62 75 vvcurveto
            -180 -2 rmoveto
            -5 callsubr
            47 41 -35 -51 vhcurveto
            return
          </CharString>
          <CharString index="35">
            -1 callsubr
            -89 -298 -23 -77 -29 -70 -31 -54 rlinecurve
            -204 499 rlineto
            -428 hlineto
            311 -709 174 -296 -141 9 rlineto
            -526 -37 callsubr
            1153 hlineto
            47 220 -181 292 236 183 68 228 33 111 rlinecurve
            return
          </CharString>
          <CharString index="36">
            rmoveto
            -67 -25 -38 -33 -52 hhcurveto
            -43 -49 26 23 -41 hvcurveto
            return
          </CharString>
          <CharString index="37">
            -39 callsubr
            12 16 callgsubr
            return
          </CharString>
          <CharString index="38">
            -200 111 -121 188 145 95 54 124 72 vhcurveto
            8 hlineto
            return
          </CharString>
          <CharString index="39">
            vstem
            201 995 rmoveto
            0 100 13 65 74 7 -66 -59 -12 vhcurveto
            -102 -478 rlineto
            -12 -57 -22 -49 0 vvcurveto
            -303 -37 callsubr
            658 hlineto
            0 86 193 45 212 vhcurveto
            102 478 rlineto
            232 49 -35 200 -341 hhcurveto
            -147 -84 -16 0 hvcurveto
            return
          </CharString>
          <CharString index="40">
            27 6 33 121 168 hhcurveto
            161 -13 -130 -228 -49 hvcurveto
            -242 -1140 rlineto
            393 hlineto
            242 1140 rlineto
            -61 callsubr
            -80 -377 273 -52 153 -5 rrcurveto
            return
          </CharString>
          <CharString index="41">
            21 -21 -51 callgsubr
            return
          </CharString>
          <CharString index="42">
            -1462 rlineto
            return
          </CharString>
          <CharString index="43">
            -73 -25 -29 -37 -35 hhcurveto
            -35 -18 28 56 87 13 80 25 73 hvcurveto
            return
          </CharString>
          <CharString index="44">
            -86 callgsubr
            hintmask 11101000
            -81 callsubr
            hintmask 11011000
            -46 callgsubr
            return
          </CharString>
          <CharString index="45">
            455 hlineto
            309 -23 callgsubr
            -348 hlineto
            -131 -612 -19 -90 -19 -124 -19 -157 rlinecurve
            -9 hlineto
            -286 983 rlineto
            -455 -48 callgsubr
            348 hlineto
            129 610 19 85 19 139 19 194 rlinecurve
            return
          </CharString>
          <CharString index="46">
            557 119 -288 110 -257 hhcurveto
            -257 -333 -104 -363 -77 hvcurveto
            return
          </CharString>
          <CharString index="47">
            1462 return
          </CharString>
          <CharString index="48">
            171 986 rmoveto
            108 7 -48 -43 -104 -111 -41 -192 rlinecurve
            -421 -90 149 -245 370 hhcurveto
            347 270 245 421 90 hvcurveto
            423 90 -157 245 -359 hhcurveto
            -273 -287 -23 0 hvcurveto
            return
          </CharString>
          <CharString index="49">
            -32 58 hhcurveto
            57 -31 callgsubr
            -57 hhcurveto
            return
          </CharString>
          <CharString index="50">
            -81 callgsubr
            vstem
            return
          </CharString>
          <CharString index="51">
            hvcurveto
            323 vlineto
            -77 -33 -66 -23 -57 -14 rrcurveto
            -13 -57 -56 -7 -55 hhcurveto
            -140 -77 87 179 107 16 99 33 91 hvcurveto
            33 91 46 72 58 52 rrcurveto
            52 58 65 26 72 hhcurveto
            112 97 -37 -73 124 hvcurveto
            endchar
          </CharString>
          <CharString index="52">
            251 980 rmoveto
            0 101 29 104 57 16 -48 -77 -17 vhcurveto
            -71 -335 rlineto
            -163 -35 -131 -58 -132 hhcurveto
            -60 -65 15 0 hvcurveto
            -106 -343 rlineto
            0 63 -20 56 200 151 202 0 vhcurveto
            17 hlineto
            return
          </CharString>
          <CharString index="53">
            -273 6 -175 -256 2 -346 rrcurveto
            -207 105 return
          </CharString>
          <CharString index="54">
            -69 callgsubr
            487 hmoveto
            return
          </CharString>
          <CharString index="55">
            -279 111 -153 211 return
          </CharString>
          <CharString index="56">
            1133 return
          </CharString>
          <CharString index="57">
            204 980 rmoveto
            0 317 35 189 -25 callgsubr
            vhcurveto
            24 callgsubr
            297 63 -28 196 5 callsubr
            return
          </CharString>
          <CharString index="58">
            -34 callgsubr
            876 -20 return
          </CharString>
          <CharString index="59">
            496 -278 rmoveto
            123 25 -124 -243 -51 hvcurveto
            -242 -52 -76 -116 -123 hhcurveto
            -124 -27 116 242 52 hvcurveto
            33 158 62 118 79 87 rrcurveto
            0 34 4 45 vhcurveto
            return
          </CharString>
          <CharString index="60">
            74 -25 60 -50 47 vhcurveto
            47 -50 -64 24 -79 hhcurveto
            -81 -66 -23 -47 -49 hvcurveto
            -49 -47 -24 -61 -76 vvcurveto
            return
          </CharString>
          <CharString index="61">
            -25 1 -21 442 242 227 262 0 -20 return
          </CharString>
          <CharString index="62">
            246 -23 callsubr
            rmoveto
            39 14 -27 -57 -58 callgsubr
            1321 -666 rmoveto
            return
          </CharString>
          <CharString index="63">
            1581 -71 callsubr
            return
          </CharString>
          <CharString index="64">
            vvcurveto
            -280 157 -156 279 return
          </CharString>
          <CharString index="65">
            298 -33 callgsubr
            return
          </CharString>
          <CharString index="66">
            -60 0 322 276 317 230 317 return
          </CharString>
          <CharString index="67">
            101 -28 79 -57 57 vhcurveto
            57 -56 -77 28 -98 hhcurveto
            return
          </CharString>
          <CharString index="68">
            1 callgsubr
            -76 callsubr
            53 return
          </CharString>
          <CharString index="69">
            -66 callsubr
            hstem
            return
          </CharString>
          <CharString index="70">
            hlineto
            -64 -299 rlineto
            return
          </CharString>
          <CharString index="71">
            rmoveto
            -397 -48 callgsubr
            397 hlineto
            endchar
          </CharString>
          <CharString index="72">
            50 callgsubr
            109 178 86 160 61 141 rrcurveto
            return
          </CharString>
          <CharString index="73">
            rmoveto
            -10 -123 rlineto
            309 hlineto
            return
          </CharString>
          <CharString index="74">
            55 256 8 callgsubr
            -118 -555 rlineto
            642 hlineto
            -256 -501 -218 -495 rlineto
            382 hlineto
            212 482 -2 -1 293 577 return
          </CharString>
          <CharString index="75">
            vstem
            119 961 rmoveto
            348 hlineto
            72 201 45 123 18 46 18 46 18 44 17 41 rrcurveto
            -288 hlineto
            -103 -163 -86 -159 -69 -157 rrcurveto
            return
          </CharString>
          <CharString index="76">
            -53 -101 -86 -33 -96 hhcurveto
            -87 -38 55 121 61 11 63 23 63 hvcurveto
            23 64 29 48 35 32 rrcurveto
            32 35 39 16 41 hhcurveto
            61 75 -20 -40 89 hvcurveto
            return
          </CharString>
          <CharString index="77">
            8 callsubr
            -59 -165 -40 -111 -23 -58 -22 -57 -22 -56 -23 -54 rrcurveto
            -35 callsubr
            endchar
          </CharString>
          <CharString index="78">
            hvcurveto
            -303 vlineto
            -18 65 69 -9 73 hhcurveto
            return
          </CharString>
          <CharString index="79">
            rmoveto
            -239 -1133 rlineto
            -8 callgsubr
            endchar
          </CharString>
          <CharString index="80">
            -6 callgsubr
            -140.199996948 -6 callgsubr
            hintmask 00000000
            return
          </CharString>
          <CharString index="81">
            77 -73 57 hvcurveto
            57 -73 -99 29 return
          </CharString>
          <CharString index="82">
            168 -20 callgsubr
            return
          </CharString>
          <CharString index="83">
            -22 callsubr
            rmoveto
            return
          </CharString>
          <CharString index="84">
            1241 return
          </CharString>
          <CharString index="85">
            1295 return
          </CharString>
          <CharString index="86">
            995 rmoveto
            0 182 18 146 217 return
          </CharString>
          <CharString index="87">
            387 hlineto
            return
          </CharString>
          <CharString index="88">
            vstem
            195 915 rmoveto
            -104 69 -49 105 175 74 72 159 105 -73 49 -109 -148 -93 -85 -147 vhcurveto
            return
          </CharString>
          <CharString index="89">
            rmoveto
            25 117 rlineto
            -382 hlineto
            -25 -117 rlineto
            135 -5 callgsubr
            endchar
          </CharString>
          <CharString index="90">
            -312 -542 -90 542 rlineto
            -403 hlineto
            237 -895 -120 -567 rlineto
            42 callsubr
            121 567 return
          </CharString>
          <CharString index="91">
            14 callsubr
            145 80 76 133 -4 callgsubr
            return
          </CharString>
          <CharString index="92">
            rmoveto
            -408 -518 rlineto
            -10 vlineto
            183 -477 334 137 -111 330 266 334 rlineto
            endchar
          </CharString>
          <CharString index="93">
            0 -20 hstemhm
            return
          </CharString>
          <CharString index="94">
            rmoveto
            -85 callgsubr
            2 -86 rlineto
            endchar
          </CharString>
          <CharString index="95">
            -545 -45 callgsubr
            return
          </CharString>
          <CharString index="96">
            rrcurveto
            -453 582 rmoveto
            return
          </CharString>
          <CharString index="97">
            56 87 67 9 65 17 65 hvcurveto
            18 65 24 51 30 38 rrcurveto
            38 30 32 19 33 hhcurveto
            endchar
          </CharString>
          <CharString index="98">
            48 callsubr
            -154 154 hstemhm
            return
          </CharString>
          <CharString index="99">
            173 -152 -21 241 173 return
          </CharString>
          <CharString index="100">
            -90 callgsubr
            endchar
          </CharString>
          <CharString index="101">
            -51 callgsubr
            hstem
            return
          </CharString>
          <CharString index="102">
            -45 -36 -39 -52 -56 -33 35 49 51 41 35 48 return
          </CharString>
          <CharString index="103">
            1 -21 1503 -20 hstem
            return
          </CharString>
          <CharString index="104">
            rlineto
            -20 callsubr
            return
          </CharString>
          <CharString index="105">
            -387 hlineto
            return
          </CharString>
          <CharString index="106">
            vstem
            1373 -24 callsubr
            -386 hlineto
            return
          </CharString>
          <CharString index="107">
            314 -14 callsubr
            return
          </CharString>
          <CharString index="108">
            -22 callsubr
            -20 hstem
            return
          </CharString>
          <CharString index="109">
            534 411 rmoveto
            121 276 -79 17 -31 7 -84 30 25 117 rlinecurve
            return
          </CharString>
          <CharString index="110">
            295 9 callgsubr
            513 -21 842 19 callsubr
            return
          </CharString>
          <CharString index="111">
            90 83 147 99 -64 56 -116 -152 -92 -90 -143 vhcurveto
            endchar
          </CharString>
          <CharString index="112">
            -477 hhcurveto
            -300 -245 -38 0 hvcurveto
            return
          </CharString>
          <CharString index="113">
            hstemhm
            125 1325 return
          </CharString>
          <CharString index="114">
            hstem
            104 1342 vstem
            return
          </CharString>
          <CharString index="115">
            rmoveto
            -348 hlineto
            return
          </CharString>
          <CharString index="116">
            0 299 return
          </CharString>
          <CharString index="117">
            729 1003 rmoveto
            0 29 5 21 125 29 -85 -258 -54 vhcurveto
            return
          </CharString>
          <CharString index="118">
            291 -427 hhcurveto
            -238 return
          </CharString>
          <CharString index="119">
            -530 -8 callsubr
            -143 117 hstemhm
            return
          </CharString>
          <CharString index="120">
            -74 callsubr
            128 -9 callsubr
            return
          </CharString>
          <CharString index="121">
            1382 rmoveto
            -94 64 -47 127 return
          </CharString>
          <CharString index="122">
            1153 -20 return
          </CharString>
          <CharString index="123">
            -32 60 hhcurveto
            57 45 33 53 12 hvcurveto
            52 11 -31 35 -57 hhcurveto
            return
          </CharString>
          <CharString index="124">
            32 9 callgsubr
            493 -21 15 callsubr
            40 -20 hstemhm
            return
          </CharString>
          <CharString index="125">
            -143 rmoveto
            24 117 rlineto
            -367 hlineto
            -24 -117 rlineto
            return
          </CharString>
          <CharString index="126">
            291 434 -20 hstem
            -209 return
          </CharString>
          <CharString index="127">
            -175 -822 rlineto
            return
          </CharString>
          <CharString index="128">
            1384 rmoveto
            return
          </CharString>
          <CharString index="129">
            128 604 8 callgsubr
            -186 -876 rlineto
            return
          </CharString>
          <CharString index="130">
            rlineto
            -391 -48 callgsubr
            42 callsubr
            return
          </CharString>
          <CharString index="131">
            -138 111 -329 -266 -334 rlineto
            endchar
          </CharString>
          <CharString index="132">
            -391 hlineto
            return
          </CharString>
          <CharString index="133">
            388 hlineto
            return
          </CharString>
          <CharString index="134">
            -20 241 -220 -21 41 -21 565 242 return
          </CharString>
          <CharString index="135" raw="1">
            13e834c0 63f7090b  
          </CharString>
          <CharString index="136">
            -45 callgsubr
            hstem
            return
          </CharString>
          <CharString index="137">
            242 -144 242 hstemhm
            return
          </CharString>
          <CharString index="138">
            -60 callsubr
            rmoveto
            return
          </CharString>
          <CharString index="139">
            -7 callgsubr
            128 return
          </CharString>
          <CharString index="140">
            -352 352 -270 -352 -353 hlineto
            return
          </CharString>
          <CharString index="141">
            hstemhm
            84 1137 return
          </CharString>
          <CharString index="142">
            242 0 -20 118 -20 22 -20 hstemhm
            return
          </CharString>
          <CharString index="143">
            rcurveline
            -2 callsubr
            -329 -1556 rlineto
            return
          </CharString>
          <CharString index="144">
            -264 502 hstem
            -104 return
          </CharString>
          <CharString index="145">
            rmoveto
            25 callsubr
            return
          </CharString>
          <CharString index="146">
            274 rlineto
            return
          </CharString>
          <CharString index="147">
            7 callgsubr
            297 63 return
          </CharString>
          <CharString index="148">
            -20 callsubr
            329 1556 rlineto
            return
          </CharString>
          <CharString index="149">
            391 hlineto
            return
          </CharString>
          <CharString index="150">
            -389 hlineto
            return
          </CharString>
          <CharString index="151">
            -228 -166 -152 0 hvcurveto
            return
          </CharString>
          <CharString index="152">
            -59 -85 callsubr
            -54 -12 return
          </CharString>
          <CharString index="153">
            rmoveto
            407 518 rlineto
            10 vlineto
            return
          </CharString>
          <CharString index="154">
            -52 586 272 return
          </CharString>
          <CharString index="155">
            23 -23 328 return
          </CharString>
          <CharString index="156">
            389 hlineto
            return
          </CharString>
        <CharString name=".notdef">
          18 0 104 1254 104 hstem
          195 104 631 104 vstem
          1034 31 callsubr
          -839 -1462 839 hlineto
          -104 104 rmoveto
          -631 1254 631 hlineto
          endchar
        </CharString>
        <CharString name="A">
          -49 callsubr
          hstem
          -121 1370 vstem
          410 274 rmoveto
          -87 callgsubr
          406 hlineto
          561 586 -13 callsubr
        </CharString>
        <CharString name="AE">
          726 0 322 -48 328 -4 317 230 317 hstemhm
          -125 2122 hintmask 10111000
          819 hmoveto
          869 hlineto
          67 -39 callgsubr
          445 hlineto
          71 -61 callgsubr
          66 317 rlineto
          -1213 hlineto
          -909 -65 callsubr
          414 hlineto
          hintmask 01011000
          170 39 callsubr
          418 hlineto
          184 871 rmoveto
          -113 -543 rlineto
          -286 hlineto
          331 543 rlineto
          endchar
        </CharString>
        <CharString name="Aacute">
          -49 callsubr
          137 23 hstem
          -121 1551 vstem
          709 -88 callsubr
          -424 -1602 -99 callsubr
        </CharString>
        <CharString name="Acircumflex">
          -49 callsubr
          137 48 callsubr
          hstemhm
          -121 1456 hintmask 00000000
          hintmask 11101100
          1335 -62 callgsubr
          -784 -1579 -99 callsubr
        </CharString>
        <CharString name="Adieresis">
          -49 callsubr
          153 314 hstem
          -121 1479 vstem
          502 -102 callgsubr
          -704 -1722 -99 callsubr
        </CharString>
        <CharString name="Agrave">
          -49 callsubr
          137 49 callgsubr
          -121 1370 vstem
          1041 -87 callsubr
          -520 -1579 -99 callsubr
        </CharString>
        <CharString name="Aring">
          -34 callgsubr
          880 -20 190 168 hstem
          608 38 callgsubr
          vstem
          1249 hmoveto
          -122 1451 rlineto
          12 30 6 34 37 vvcurveto
          -47 callsubr
          -33 5 -30 9 -27 vhcurveto
          -743 -1460 rlineto
          406 hlineto
          125 39 callsubr
          448 hlineto
          10 -274 rlineto
          9 1636 rmoveto
          47 41 -35 -51 -5 callsubr
          hvcurveto
          -31 -1050 -13 callsubr
        </CharString>
        <CharString name="Atilde">
          -49 callsubr
          135 30 callsubr
          -121 1485 hintmask 11110100
          1174 1919 -71 callsubr
          hintmask 11101100
          -97 callgsubr
          hintmask 11110100
          -24 callgsubr
          -42 callgsubr
          -1079 -1919 -99 callsubr
        </CharString>
        <CharString name="B">
          87 0 305 858 26 callgsubr
          33 1237 vstem
          -26 callgsubr
          547 hlineto
          187 144 42 83 101 hvcurveto
          102 83 51 118 153 vvcurveto
          140 -75 100 -117 39 vhcurveto
          8 vlineto
          198 59 99 126 192 vvcurveto
          205 -152 114 -289 vhcurveto
          -215 -561 rmoveto
          60 262 rlineto
          63 hlineto
          85 42 -34 -68 -112 -61 -48 -117 hvcurveto
          -197 -596 rmoveto
          66 307 rlineto
          68 hlineto
          111 38 -45 -92 -49 -19 -40 -39 -33 hvcurveto
          -32 -38 -48 -16 -57 hhcurveto
          endchar
        </CharString>
        <CharString name="C">
          79 -33 callgsubr
          hstem
          104 1258 vstem
          -44 callgsubr
          -99 94 134 -49 173 hhcurveto
          158 147 30 60 135 -56 callsubr
        </CharString>
        <CharString name="Ccedilla">
          79 29 callgsubr
          472 20 1485 -20 hstemhm
          104 1258 hintmask 01111000
          -44 callgsubr
          59 -63 76 -42 91 -23 rrcurveto
          -16 -59 callgsubr
          rlineto
          157 147 30 60 134 -56 callsubr
        </CharString>
        <CharString name="D">
          190 0 324 819 319 hstem
          33 1304 vstem
          -26 callgsubr
          471 hlineto
          516 -5 322 354 -5 560 rrcurveto
          176 -51 136 -101 96 vhcurveto
          97 -101 -142 48 -184 hhcurveto
          -264 -1138 rmoveto
          172 819 rlineto
          71 hlineto
          129 76 -87 -167 hvcurveto
          3 -332 -163 -239 -219 6 rrcurveto
          endchar
        </CharString>
        <CharString name="E">
          -41 callsubr
          hstem
          33 1177 vstem
          33 hmoveto
          -91 callsubr
          -868 hlineto
          endchar
        </CharString>
        <CharString name="Eacute">
          -41 callsubr
          117 23 hstem
          33 1266 vstem
          578 -88 callsubr
          -236 -140 -89 callgsubr
        </CharString>
        <CharString name="Ecircumflex">
          -41 callsubr
          117 48 callsubr
          hstemhm
          33 1206 hintmask 00000000
          hintmask 11101100
          1239 -62 callgsubr
          -631 -117 -89 callgsubr
        </CharString>
        <CharString name="Edieresis">
          -41 callsubr
          133 314 hstem
          33 1206 vstem
          383 -102 callgsubr
          -528 -260 -89 callgsubr
        </CharString>
        <CharString name="Egrave">
          -41 callsubr
          117 49 callgsubr
          33 1177 vstem
          933 -87 callsubr
          -355 -117 -89 callgsubr
        </CharString>
        <CharString name="Euro">
          -23 1 -21 471 204 123 205 504 -20 hstem
          53 1227 vstem
          1280 1382 rmoveto
          -57 37 -58 26 -58 17 rrcurveto
          17 -58 -67 8 -77 hhcurveto
          -291 -217 -180 -324 -112 hvcurveto
          -117 hlineto
          -47 -205 rlineto
          106 hlineto
          -22 -123 rlineto
          -109 hlineto
          -43 -204 rlineto
          140 hlineto
          -324 8 142 -147 308 hhcurveto
          153 118 22 43 84 hvcurveto
          330 vlineto
          -41 -104 -89 -27 -100 hhcurveto
          -52 -35 10 21 -19 hvcurveto
          -18 21 -9 37 55 vvcurveto
          227 hlineto
          43 204 rlineto
          -246 hlineto
          5 43 8 41 12 39 rrcurveto
          309 hlineto
          45 205 rlineto
          -297 hlineto
          130 51 73 65 95 hhcurveto
          67 74 -26 -52 80 hvcurveto
          endchar
        </CharString>
        <CharString name="F">
          -46 21 -21 547 319 279 317 hstem
          33 1171 vstem
          33 hmoveto
          42 callsubr
          113 547 rlineto
          438 hlineto
          69 319 rlineto
          -436 hlineto
          58 279 rlineto
          471 hlineto
          67 317 rlineto
          -862 hlineto
          endchar
        </CharString>
        <CharString name="G">
          219 1 -21 571 305 629 -20 hstem
          104 1305 vstem
          1341 856 rmoveto
          -610 hlineto
          -67 -305 rlineto
          229 hlineto
          -51 -232 rlineto
          -9 -47 -44 -5 -42 hhcurveto
          -139 -70 88 176 107 20 101 40 95 hvcurveto
          41 95 54 71 67 48 rrcurveto
          49 68 78 24 88 hhcurveto
          102 102 -30 -60 102 hvcurveto
          147 309 rlineto
          71 -121 -150 36 -177 hhcurveto
          -339 -261 -153 -287 -147 hvcurveto
          -73 -143 -37 -161 -178 vvcurveto
          -186 48 -144 96 -101 vhcurveto
          -101 96 135 -51 174 hhcurveto
          181 173 27 54 167 hvcurveto
          endchar
        </CharString>
        <CharString name="H">
          251 21 -21 596 324 542 -20 hstem
          33 1440 vstem
          772 hmoveto
          42 callsubr
          310 -23 callgsubr
          -392 hlineto
          -112 -542 rlineto
          -348 hlineto
          112 542 23 callsubr
          127 596 rlineto
          346 hlineto
          endchar
        </CharString>
        <CharString name="I">
          0 callgsubr
          hstem
          31 706 vstem
          340 -28 callgsubr
          397 hlineto
          309 -23 callgsubr
          endchar
        </CharString>
        <CharString name="Iacute">
          0 callgsubr
          137 23 hstem
          31 1035 vstem
          345 -88 callsubr
          392 -140 -36 callsubr
        </CharString>
        <CharString name="Icircumflex">
          0 callgsubr
          137 48 callsubr
          hstemhm
          31 984 hintmask 00000000
          hintmask 11011000
          1015 -63 callsubr
          -12 -117 -36 callsubr
        </CharString>
        <CharString name="Idieresis">
          0 callgsubr
          153 314 hstem
          31 984 vstem
          159 -102 callgsubr
          91 -260 -36 callsubr
        </CharString>
        <CharString name="Igrave">
          0 callgsubr
          137 49 callgsubr
          31 718 vstem
          749 -87 callsubr
          224 -117 -36 callsubr
        </CharString>
        <CharString name="J">
          -447 -6 callsubr
          -328 1100 vstem
          772 1462 38 callsubr
          -289 -1345 -19 -91 -28 -65 -37 -39 rlinecurve
          -39 -37 -54 -20 -71 hhcurveto
          -50 -58 8 16 -66 hvcurveto
          -319 vlineto
          -19 71 71 -10 71 hhcurveto
          120 97 17 35 75 hvcurveto
          75 35 61 55 47 75 47 75 37 104 29 133 rrcurveto
          endchar
        </CharString>
        <CharString name="K">
          159 -38 callsubr
          33 1489 vstem
          803 hmoveto
          438 hlineto
          -270 788 551 674 rlineto
          -459 hlineto
          -297 -370 -28 -35 -43 -65 -59 -95 rlinecurve
          -38 -59 135 624 23 callsubr
          108 522 97 56 rlineto
          endchar
        </CharString>
        <CharString name="L">
          -132 0 319 1143 -20 hstem
          33 936 vstem
          -26 callgsubr
          868 hlineto
          68 319 rlineto
          -477 hlineto
          241 1143 rlineto
          endchar
        </CharString>
        <CharString name="M">
          651 -38 callsubr
          588 272 vstem
          588 1049 rmoveto
          -1049 370 vlineto
          482 1049 rlineto
          8 hlineto
          -15 -64 -39 -139 -36 -145 -33 -152 rlinecurve
          -117 -549 rlineto
          351 hlineto
          313 -23 callgsubr
          -526 hlineto
          -478 -1038 rlineto
          -8 1038 -518 -48 callgsubr
          348 hlineto
          113 537 13 63 28 171 45 278 rlinecurve
          endchar
        </CharString>
        <CharString name="N">
          407 -38 callsubr
          33 1595 vstem
          864 hmoveto
          -62 callsubr
          8 hlineto
          endchar
        </CharString>
        <CharString name="NULL">
          endchar
        </CharString>
        <CharString name="Ntilde">
          407 -66 callsubr
          135 30 callsubr
          33 1595 hintmask 11101000
          1268 -73 callgsubr
          -883 -891 rmoveto
          289 -1028 rlineto
          -62 callsubr
          endchar
        </CharString>
        <CharString name="O">
          18 callgsubr
          897 1485 -107 callgsubr
        </CharString>
        <CharString name="OE">
          698 0 324 -323 -21 616 322 225 319 23 -20 hstemhm
          104 1864 hintmask 10110100
          1659 hmoveto
          65 324 rlineto
          -477 hlineto
          58 272 rlineto
          444 hlineto
          72 322 rlineto
          -445 hlineto
          47 225 rlineto
          478 hlineto
          67 319 rlineto
          -874 hlineto
          hintmask 01101100
          15 -65 -63 8 -63 hhcurveto
          -236 -199 -92 -173 -141 hvcurveto
          -71 -87 -55 -104 -39 -122 rrcurveto
          -39 -122 -19 -126 -131 vvcurveto
          -170 48 -134 95 -98 vhcurveto
          -97 96 133 -49 171 hhcurveto
          hintmask 10110100
          62 66 7 13 69 hvcurveto
          18 350 rmoveto
          -27 -56 -60 -14 -64 hhcurveto
          -121 -61 72 145 110 17 104 33 98 hvcurveto
          34 98 46 78 57 59 rrcurveto
          59 58 61 29 64 hhcurveto
          67 52 -16 -33 35 hvcurveto
          endchar
        </CharString>
        <CharString name="Oacute">
          -42 callsubr
          114 23 7 callsubr
          717 -88 callsubr
          180 -117 -107 callgsubr
        </CharString>
        <CharString name="Ocircumflex">
          -42 callsubr
          114 48 callsubr
          hstemhm
          104 1342 hintmask 00000000
          hintmask 11011000
          1368 -63 callsubr
          -205 -94 -107 callgsubr
        </CharString>
        <CharString name="Odieresis">
          -42 callsubr
          130 314 7 callsubr
          512 -102 callgsubr
          -102 -237 -107 callgsubr
        </CharString>
        <CharString name="Ograve">
          -42 callsubr
          114 328 7 callsubr
          1102 -87 callsubr
          31 -94 -107 callgsubr
        </CharString>
        <CharString name="Oslash">
          -42 callsubr
          hstem
          94 1352 vstem
          94 31 rmoveto
          160 -117 106 135 rlineto
          -46 88 108 -23 128 hhcurveto
          147 130 40 79 115 hvcurveto
          115 80 91 114 65 148 rrcurveto
          66 149 33 160 172 vvcurveto
          146 -34 121 -69 95 vhcurveto
          99 125 -156 119 -92 -115 rlineto
          48 -89 -105 24 -121 hhcurveto
          -149 -133 -39 -79 -117 hvcurveto
          -116 -78 -92 -113 -67 -149 rrcurveto
          -67 -148 -34 -161 -175 vvcurveto
          -151 36 -122 71 -94 vhcurveto
          289 363 rmoveto
          10 vlineto
          109 16 102 32 95 vhcurveto
          32 95 43 74 54 55 rrcurveto
          55 54 58 27 63 hhcurveto
          47 38 -11 -22 30 hvcurveto
          84 -213 -53 callgsubr
          -43 -74 -54 -55 rrcurveto
          -54 -54 -59 -27 -63 hhcurveto
          -45 -38 10 19 -31 hvcurveto
          endchar
        </CharString>
        <CharString name="Otilde">
          -42 callsubr
          112 30 callsubr
          104 1342 hintmask 11101000
          1204 -73 callgsubr
          -497 -434 -107 callgsubr
        </CharString>
        <CharString name="P">
          65 21 -21 485 320 338 319 -14 callsubr
          33 1218 hintmask 11011000
          -26 callgsubr
          42 callsubr
          100 485 rlineto
          86 hlineto
          199 156 48 95 114 hvcurveto
          115 96 57 132 168 vvcurveto
          281 -191 157 -345 vhcurveto
          -121 -657 rmoveto
          hintmask 11101000
          72 338 rlineto
          59 hlineto
          84 51 -52 -79 -60 -19 -50 -37 -39 hvcurveto
          -39 -37 -49 -19 -61 hhcurveto
          endchar
        </CharString>
        <CharString name="Q">
          18 callgsubr
          659 -20 rmoveto
          162 -328 rlineto
          439 hlineto
          -238 422 131 73 103 113 76 153 rlinecurve
          76 153 38 169 187 vvcurveto
          176 -48 138 -95 99 vhcurveto
          100 -95 -133 50 -172 hhcurveto
          -313 -247 -161 -295 -137 hvcurveto
          -68 -147 -34 -162 -177 vvcurveto
          -176 47 -138 95 -100 vhcurveto
          -99 95 134 -50 172 hhcurveto
          223 1177 rmoveto
          116 65 -79 -152 -112 -16 -104 -33 -96 hvcurveto
          -33 -95 -44 -75 -57 -54 rrcurveto
          -54 -56 -62 -27 -68 hhcurveto
          -116 -66 77 153 111 16 103 32 95 hvcurveto
          32 95 44 76 57 55 rrcurveto
          55 57 63 28 69 hhcurveto
          endchar
        </CharString>
        <CharString name="R">
          120 21 -21 1163 26 callgsubr
          33 1216 vstem
          424 hmoveto
          113 532 rlineto
          73 hlineto
          195 -532 rlineto
          426 hlineto
          -40 96 -224 516 rlineto
          187 81 95 160 208 vvcurveto
          268 -184 133 -336 vhcurveto
          -387 -48 callgsubr
          567 829 rmoveto
          70 334 rlineto
          53 hlineto
          88 47 -44 -83 -131 -80 -76 -127 hvcurveto
          endchar
        </CharString>
        <CharString name="S">
          -89 -4 callsubr
          43 1100 vstem
          1143 1376 rmoveto
          71 -127 -144 36 -159 hhcurveto
          -99 -89 -19 -39 -80 hvcurveto
          -79 -38 -62 -54 -44 -70 rrcurveto
          -43 -69 -22 -79 -87 vvcurveto
          -156 67 -126 156 -125 vhcurveto
          64 -53 39 -35 15 -16 15 -15 11 -16 8 -16 rrcurveto
          8 -15 4 -17 -18 vvcurveto
          -76 -51 -43 -99 -59 -65 12 24 -73 vhcurveto
          -72 24 -64 30 -56 35 rrcurveto
          -350 vlineto
          -63 95 135 -33 147 hhcurveto
          175 137 41 82 98 hvcurveto
          98 83 49 115 148 vvcurveto
          165 -75 122 -157 116 vhcurveto
          -63 47 -42 38 -23 28 rrcurveto
          -22 29 -11 30 33 vvcurveto
          72 48 38 85 80 97 -29 -59 114 vhcurveto
          endchar
        </CharString>
        <CharString name="T">
          -81 21 -21 1139 323 hstem
          156 1097 vstem
          236 hmoveto
          42 callsubr
          237 1139 rlineto
          318 hlineto
          71 323 rlineto
          -1028 hlineto
          -69 -323 rlineto
          317 hlineto
          endchar
        </CharString>
        <CharString name="U">
          -40 callgsubr
          6 callsubr
          hintmask 01110000
          1450 1462 -22 callgsubr
          hintmask 10110000
          -98 callsubr
        </CharString>
        <CharString name="Uacute">
          -40 callgsubr
          137 23 6 callsubr
          hintmask 01111000
          725 -88 callsubr
          725 -140 -92 callsubr
        </CharString>
        <CharString name="Ucircumflex">
          -40 callgsubr
          137 48 callsubr
          6 callsubr
          hintmask 00000000
          hintmask 01101100
          1376 -86 callgsubr
          hintmask 01110100
          -81 callsubr
          hintmask 10101100
          -46 callgsubr
          340 -117 -22 callgsubr
          -98 callsubr
        </CharString>
        <CharString name="Udieresis">
          -40 callgsubr
          153 314 6 callsubr
          hintmask 01111000
          533 -102 callgsubr
          430 -260 -92 callsubr
        </CharString>
        <CharString name="Ugrave">
          -40 callgsubr
          137 328 6 callsubr
          hintmask 01111000
          1045 -87 callsubr
          641 -117 -92 callsubr
        </CharString>
        <CharString name="V">
          53 -38 callsubr
          150 1265 vstem
          1415 31 callsubr
          -414 hlineto
          -350 -805 -17 -35 -18 -48 -21 -63 rlinecurve
          -20 -62 -15 -52 -9 -43 rrcurveto
          -8 hlineto
          11 75 5 85 96 vvcurveto
          51 vlineto
          -27 801 rlineto
          -382 hlineto
          104 -65 callsubr
          436 hlineto
          endchar
        </CharString>
        <CharString name="W">
          704 -38 callsubr
          993 299 vstem
          527 458 rmoveto
          -40 -104 13 72 8 125 4 178 rlinecurve
          10 733 rlineto
          -370 hlineto
          49 -65 callsubr
          434 hlineto
          253 595 57 144 39 116 22 89 rlinecurve
          -9 -113 -4 -108 -103 vvcurveto
          -620 461 vlineto
          635 -23 callgsubr
          -2 callsubr
          -303 -762 -133 -346 rlineto
          17 107 9 105 104 vvcurveto
          792 -336 vlineto
          -335 -772 rlineto
          endchar
        </CharString>
        <CharString name="X">
          147 -38 callsubr
          -125 1636 vstem
          803 hmoveto
          432 hlineto
          -262 737 538 725 rlineto
          -448 hlineto
          -309 -469 -123 469 rlineto
          -416 hlineto
          223 -686 -563 -776 rlineto
          444 hlineto
          338 498 rlineto
          endchar
        </CharString>
        <CharString name="Y">
          26 -38 callsubr
          164 -23 callsubr
          vstem
          969 31 callsubr
          -17 callsubr
          612 895 rlineto
          endchar
        </CharString>
        <CharString name="Ydieresis">
          26 -66 callsubr
          153 314 hstem
          164 -23 callsubr
          vstem
          397 -102 callgsubr
          521 -260 rmoveto
          -436 hlineto
          -17 callsubr
          rlineto
          endchar
        </CharString>
        <CharString name="Z">
          -107 0 319 824 319 hstem
          -92 1311 vstem
          -92 hmoveto
          1034 hlineto
          68 319 rlineto
          -543 hlineto
          700 898 52 245 rlineto
          -986 hlineto
          -67 -319 rlineto
          479 hlineto
          -690 -901 rlineto
          endchar
        </CharString>
        <CharString name="a">
          -60 callgsubr
          34 callsubr
          hintmask 01011000
          672 hmoveto
          309 hlineto
          hintmask 01101000
          -76 callgsubr
          hintmask 10011000
          -100 callsubr
          8 hlineto
          -117 -101 callsubr
        </CharString>
        <CharString name="aacute">
          -60 callgsubr
          108 23 305 -20 hstemhm
          84 1168 hintmask 01011110
          531 -93 callgsubr
          151 -1141 -34 callsubr
          hintmask 01101110
          -76 callgsubr
          hintmask 10011110
          -105 callgsubr
        </CharString>
        <CharString name="acircumflex">
          -60 callgsubr
          105 -9 callsubr
          84 1137 hintmask 01010101
          1198 1238 -99 callgsubr
          hintmask 01011011
          -77 callgsubr
          hintmask 01100101
          -55 callgsubr
          -250 -1115 -34 callsubr
          -76 callgsubr
          hintmask 10010101
          -105 callgsubr
        </CharString>
        <CharString name="acute">
          -76 -23 callsubr
          23 305 -20 hstem
          453 721 vstem
          453 -93 callgsubr
          endchar
        </CharString>
        <CharString name="adieresis">
          -60 callgsubr
          124 314 0 -20 34 callsubr
          hintmask 01010110
          331 21 callsubr
          hintmask 01011010
          -95 callsubr
          vhcurveto
          hintmask 01010110
          -53 callsubr
          hintmask 01011010
          -94 callgsubr
          vhcurveto
          hintmask 01010110
          -69 callgsubr
          -136 -1261 -34 callsubr
          hintmask 01100110
          -76 callgsubr
          hintmask 10010110
          -105 callgsubr
        </CharString>
        <CharString name="ae">
          577 1 -21 41 -21 422 242 469 -20 40 -20 hstemhm
          84 1659 hintmask 01101100
          1567 356 -70 callgsubr
          60 vlineto
          392 216 148 268 95 -32 76 -63 57 hvcurveto
          58 -63 -83 29 -105 hhcurveto
          -96 -106 -40 -75 -77 hvcurveto
          hintmask 01110100
          95 -207 vlineto
          -53 -140 rlineto
          -8 hlineto
          hintmask 10101100
          112 -67 -72 48 -123 -98 callgsubr
          8 hlineto
          hintmask 01101100
          -10 -123 rlineto
          227 hlineto
          31 92 rlineto
          hintmask 10101100
          -75 55 88 -37 119 hhcurveto
          73 64 7 15 55 hvcurveto
          56 15 61 26 66 39 -11 callsubr
          -84 callsubr
          -578 -373 -20 callgsubr
          65 9 65 18 65 hvcurveto
          18 65 24 52 29 38 rrcurveto
          39 29 31 19 33 hhcurveto
          56 32 -57 -87 -107 -20 -95 -39 -82 hvcurveto
          -82 -39 -44 -41 -51 hhcurveto
          endchar
        </CharString>
        <CharString name="agrave">
          -60 callgsubr
          108 328 34 callsubr
          hintmask 01011100
          890 -92 callgsubr
          28 -1118 -34 callsubr
          hintmask 01101100
          -76 callgsubr
          hintmask 10011100
          -105 callgsubr
        </CharString>
        <CharString name="alefdageshhb">
          167 21 -21 75 173 1047 -20 hstem
          438.350006104 193.869995117 -104 callsubr
          -743 -576 -106 callgsubr
        </CharString>
        <CharString name="alefpatahhb">
          167 -242 116 147 -96 callgsubr
          -599 -1066 19 callgsubr
        </CharString>
        <CharString name="alefqamatshb">
          167 -243 117 147 -96 callgsubr
          -604 -1067 -18 callsubr
        </CharString>
        <CharString name="ampersand">
          290 1 -21 41 -21 1485 -20 hstemhm
          8 1481 hintmask 01110000
          920 hmoveto
          442 hlineto
          -191 262 143 145 114 199 61 215 rlinecurve
          -383 hlineto
          -16 -55 -21 -54 -27 -53 -26 -52 -25 -38 -24 -24 -129 186 rcurveline
          121 63 88 65 53 69 rrcurveto
          53 69 27 77 87 vvcurveto
          99 -38 78 -76 59 vhcurveto
          59 -75 -101 29 -126 hhcurveto
          -153 -118 -37 -75 -84 hvcurveto
          -84 -74 -42 -103 -131 vvcurveto
          -39 8 -44 15 -49 vhcurveto
          16 -48 20 -39 25 -31 rrcurveto
          -245 -80 -114 -138 -212 vvcurveto
          -128 46 -100 92 -71 vhcurveto
          hintmask 10110000
          -71 92 127 -35 163 hhcurveto
          129 117 27 54 103 hvcurveto
          -132 1160 rmoveto
          51 31 -39 -47 -79 -45 -67 -96 -41 hvcurveto
          -34 45 -17 48 51 vvcurveto
          80 45 49 65 vhcurveto
          -36 -908 rmoveto
          -17 -41 -46 -9 -51 hhcurveto
          -103 -69 54 83 77 39 56 78 35 hvcurveto
          endchar
        </CharString>
        <CharString name="aring">
          -60 callgsubr
          104 168 170 168 hstemhm
          488 38 callgsubr
          hintmask 01011111
          1025 -73 callsubr
          -163 -1366 -34 callsubr
          hintmask 01101111
          -76 callgsubr
          hintmask 10011111
          -105 callgsubr
        </CharString>
        <CharString name="asciicircum">
          -115 -6 callsubr
          -6 1087 vstem
          625 31 callsubr
          -631 -960 rlineto
          297 hlineto
          360 569 156 -569 rlineto
          274 hlineto
          -284 960 rlineto
          endchar
        </CharString>
        <CharString name="asciitilde">
          -52 524 396 hstem
          96 975 vstem
          1071 920 rmoveto
          -76 -76 -93 -45 -68 hhcurveto
          -69 -55 18 37 -89 hvcurveto
          -69 27 -51 18 -33 7 rrcurveto
          8 -33 -36 4 -41 hhcurveto
          -103 -88 -36 -73 -71 hvcurveto
          -285 vlineto
          81 84 87 40 69 hhcurveto
          33 30 -4 -8 29 hvcurveto
          29 -8 40 -14 50 -21 65 -26 49 -17 34 -9 rrcurveto
          -8 35 38 -4 41 hhcurveto
          103 88 36 73 71 hvcurveto
          endchar
        </CharString>
        <CharString name="asterisk">
          -101 1571 -20 hstem
          152 1009 vstem
          793 1178 rmoveto
          116 331 -307 62 -31 -350 -319 165 -100 -278 299 -84 -254 -229 249 -185 166 244 80 -303 285 86 -148 311 310 -41 22 301 rlineto
          endchar
        </CharString>
        <CharString name="at">
          626 -186 229 164 221 440 222 163 230 hstem
          82 262 1167 263 vstem
          1255 137 rmoveto
          -76 -30 -82 -23 -87 -17 rrcurveto
          -16 -87 -78 -8 -69 hhcurveto
          -249 -3 -187 195 4 289 rrcurveto
          142 27 126 55 111 vhcurveto
          55 111 78 86 99 61 rrcurveto
          61 100 112 31 125 hhcurveto
          332 184 -148 -284 hvcurveto
          2 -232 -102 -165 -127 4 rrcurveto
          -26 -13 14 27 29 8 45 15 63 hvcurveto
          100 414 rlineto
          47 -121 -112 23 -103 hhcurveto
          -205 -169 -99 -185 -99 hvcurveto
          -49 -92 -25 -98 -104 vvcurveto
          -92 25 -74 49 -56 vhcurveto
          -55 49 64 -28 78 hhcurveto
          124 80 42 87 64 hvcurveto
          10 hlineto
          -86 33 73 -43 113 hhcurveto
          97 88 27 54 81 hvcurveto
          81 54 64 75 46 96 rrcurveto
          47 96 23 105 113 vvcurveto
          205 -67 161 -133 116 vhcurveto
          116 -133 -184 58 -237 hhcurveto
          -178 -162 -42 -83 -146 hvcurveto
          -145 -83 -112 -115 -78 -149 rrcurveto
          -78 -149 -39 -170 -192 vvcurveto
          -137 29 -121 57 -105 vhcurveto
          57 -104 82 -80 105 -55 rrcurveto
          -56 106 123 -28 139 hhcurveto
          79 83 9 19 89 hvcurveto
          89 18 75 23 60 29 rrcurveto
          -239 756 rmoveto
          -24 -91 -25 -63 -26 -35 rrcurveto
          -34 -25 -33 -17 -41 hhcurveto
          -52 -26 35 69 55 11 53 21 53 hvcurveto
          21 53 29 43 37 31 rrcurveto
          32 37 43 16 49 hhcurveto
          19 17 -3 -7 15 hvcurveto
          endchar
        </CharString>
        <CharString name="atilde">
          -60 callgsubr
          106 35 callsubr
          84 1137 hintmask 0101010110000000
          1016 -44 callsubr
          hintmask 0101101010000000
          -90 callsubr
          hintmask 0110100110000000
          -42 callgsubr
          -524 -1458 -34 callsubr
          -76 callgsubr
          hintmask 1001010110000000
          -105 callgsubr
        </CharString>
        <CharString name="b">
          32 1 -21 41 -21 15 callsubr
          hstemhm
          23 1136 hintmask 01110000
          600 1024 rmoveto
          35 84 30 100 25 117 49 231 36 callsubr
          307 hlineto
          49 125 rlineto
          8 hlineto
          hintmask 10110000
          42 -54 42 -38 41 -21 rrcurveto
          -21 41 49 -11 55 hhcurveto
          183 155 134 245 93 hvcurveto
          47 123 24 120 119 vvcurveto
          279 -114 153 -207 -65 -48 -17 -31 -40 vhcurveto
          -19 -15 -26 -27 -32 -39 rrcurveto
          70 -182 rmoveto
          57 29 -48 -96 -63 -10 -64 -19 -65 hvcurveto
          -19 -65 -26 -52 -31 -39 rrcurveto
          -39 -31 -32 -20 -33 hhcurveto
          -53 -25 -10 callsubr
        </CharString>
        <CharString name="backslash">
          -255 -4 callsubr
          221 557 vstem
          778 -20 rmoveto
          -248 1503 rlineto
          -309 hlineto
          238 -1503 rlineto
          endchar
        </CharString>
        <CharString name="bar">
          -52 -465 2013 hstem
          442 271 vstem
          713 1548 rmoveto
          -271 -2013 271 hlineto
          endchar
        </CharString>
        <CharString name="betdageshhb">
          -15 31 callgsubr
          255 300 hstemhm
          287.350006104 11 callgsubr
          hintmask 11110000
          -68 callgsubr
          186 -529 -106 callgsubr
        </CharString>
        <CharString name="braceleft">
          -476 -324 281 1505 -20 hstem
          -16 899 vstem
          473 258 rmoveto
          7 38 3 25 11 vvcurveto
          117 -50 77 -120 39 vhcurveto
          8 vlineto
          171 20 81 74 27 128 53 258 rcurveline
          23 96 45 30 108 3 62 280 rcurveline
          -129 hlineto
          -163 -106 -45 -88 -65 hvcurveto
          -32 -44 -25 -63 -19 -83 -55 -246 rcurveline
          -14 -63 -26 -45 -37 -26 rrcurveto
          -25 -37 -59 -13 -79 hhcurveto
          -53 -287 rlineto
          123 53 -37 -100 -13 -2 -14 -4 -16 hvcurveto
          -37 -174 rlineto
          -10 -43 -5 -42 -42 vvcurveto
          -187 117 -90 244 vhcurveto
          82 281 hlineto
          -75 -38 29 59 13 2 16 4 20 hvcurveto
          endchar
        </CharString>
        <CharString name="braceright">
          -476 -6 callsubr
          -123 871 vstem
          -123 -324 rmoveto
          74 hlineto
          121 94 26 51 67 hvcurveto
          67 51 46 82 25 114 55 246 rcurveline
          124 27 76 50 161 hhcurveto
          58 287 rlineto
          -139 -54 47 88 11 2 15 4 17 hvcurveto
          37 174 rlineto
          9 40 5 43 46 vvcurveto
          177 -126 97 -224 vhcurveto
          -61 hlineto
          -54 -280 rlineto
          91 45 -29 -59 -14 -2 -17 -5 -19 hvcurveto
          -34 -163 rlineto
          -7 -41 -4 -25 -8 vvcurveto
          -119 57 -78 113 -37 vhcurveto
          -8 vlineto
          -164 -16 -86 -73 -28 -132 -53 -258 rcurveline
          -8 -39 -10 -28 -12 -15 -12 -15 -18 -11 -24 -7 -24 -7 -36 -5 -49 -2 rrcurveto
          endchar
        </CharString>
        <CharString name="bracketleft">
          27 callgsubr
          -53 923 vstem
          -53 -344 rmoveto
          530 hlineto
          53 254 rlineto
          -215 hlineto
          285 1339 rlineto
          215 hlineto
          55 254 rlineto
          -530 hlineto
          endchar
        </CharString>
        <CharString name="bracketright">
          27 callgsubr
          -133 919 vstem
          133 -90 rmoveto
          -213 hlineto
          -53 -254 rlineto
          526 hlineto
          393 1847 rlineto
          -528 hlineto
          -55 -254 rlineto
          215 hlineto
          endchar
        </CharString>
        <CharString name="breve">
          -76 -23 callsubr
          242 hstem
          399 811 vstem
          989 1612 rmoveto
          -85 -28 -60 -44 -113 hhcurveto
          -99 -64 42 87 hvcurveto
          -217 hlineto
          -6 -12 -3 -19 -25 vvcurveto
          -99 32 -77 63 -56 vhcurveto
          -55 63 88 -28 111 hhcurveto
          265 148 120 251 41 hvcurveto
          endchar
        </CharString>
        <CharString name="bullet">
          -408 389 717 hstem
          86 676 vstem
          86 688 rmoveto
          -93 26 -73 52 -53 vhcurveto
          -53 52 72 -27 91 hhcurveto
          120 94 37 74 67 hvcurveto
          68 74 34 102 129 vvcurveto
          195 -98 106 -197 vhcurveto
          -228 5 -156 -188 3 -235 rrcurveto
          endchar
        </CharString>
        <CharString name="c">
          -179 1 -21 1173 -20 hstem
          84 973 vstem
          881 377 rmoveto
          -31 callsubr
          123 287 rlineto
          -37 callgsubr
          -80 75 103 -40 133 hhcurveto
          157 111 31 59 107 hvcurveto
          endchar
        </CharString>
        <CharString name="caron">
          -76 -23 callsubr
          154 151 23 hstem
          322 935 vstem
          322 1569 rmoveto
          -23 vlineto
          24 -31 31 -47 37 -63 38 -62 29 -55 21 -47 rrcurveto
          446 hlineto
          116 127 103 102 90 76 rrcurveto
          23 -274 vlineto
          -67 -43 -80 -58 -93 -73 -75 91 -51 58 -29 25 rrcurveto
          endchar
        </CharString>
        <CharString name="ccedilla">
          -179 29 callgsubr
          472 20 15 callsubr
          hstemhm
          84 973 hintmask 01111000
          1057 1073 rmoveto
          -37 callgsubr
          44 -47 55 -34 64 -19 rrcurveto
          -33 -59 callgsubr
          151 2 108 31 104 57 rlinecurve
          307 vlineto
          -31 callsubr
          endchar
        </CharString>
        <CharString name="cedilla">
          -828 29 callgsubr
          451 41 hstemhm
          -221 508 hintmask 01110000
          133 hmoveto
          -205 hlineto
          -75 -135 rlineto
          hintmask 10110000
          -80 callgsubr
          endchar
        </CharString>
        <CharString name="cent">
          -23 1 -21 1353 150 -14 callsubr
          154 972 hintmask 10110000
          373 -20 rmoveto
          229 hlineto
          41 188 108 8 102 30 97 52 rlinecurve
          311 vlineto
          -53 -99 -87 -37 -96 hhcurveto
          -79 -42 43 105 73 11 69 21 65 hvcurveto
          21 65 28 48 35 33 rrcurveto
          33 35 38 17 42 hhcurveto
          33 32 -4 -7 33 hvcurveto
          33 -7 42 -16 53 -25 rrcurveto
          hintmask 11010000
          122 286 -73 38 -77 25 -81 13 rlinecurve
          33 150 rlineto
          -230 hlineto
          -32 -148 -154 -23 -124 -80 -94 -136 rlinecurve
          -93 -136 -47 -170 -204 vvcurveto
          -216 90 -133 180 -49 vhcurveto
          endchar
        </CharString>
        <CharString name="circumflex">
          -76 -23 callsubr
          -9 callsubr
          254 936 hintmask 01010000
          1190 -86 callsubr
          hintmask 10110000
          -77 callgsubr
          hintmask 01010000
          -55 callgsubr
          endchar
        </CharString>
        <CharString name="colon">
          -584 -4 -21 1172 -20 hstem
          0 618 -19 callsubr
          -195 -788 rmoveto
          -78 callsubr
          endchar
        </CharString>
        <CharString name="comma">
          -584 37 callsubr
          544 vstem
          432 238 8 callsubr
          -41 -115 -63 -177 -49 -129 -35 -81 rlinecurve
          288 25 callgsubr
        </CharString>
        <CharString name="copyright">
          477 -20 163 119 227 482 227 121 164 hstem
          113 163 185 280 711 -96 callsubr
          951 385 rmoveto
          55 -111 -110 27 -111 hhcurveto
          -138 -107 -41 -81 -76 hvcurveto
          -75 -81 -38 -113 -147 vvcurveto
          -149 38 -116 77 -83 vhcurveto
          -83 77 110 -42 142 hhcurveto
          98 91 21 43 84 hvcurveto
          231 vlineto
          -45 -80 -86 -23 -92 hhcurveto
          -121 -58 71 171 157 65 83 107 72 74 -20 -40 76 hvcurveto
          endchar
        </CharString>
        <CharString name="d">
          26 1 -21 41 -21 15 callsubr
          hstemhm
          84 1227 hintmask 01110000
          682 123 -34 callsubr
          330 1556 32 callgsubr
          -62 -301 -12 -53 -8 -72 -5 -92 rlinecurve
          -2 -37 rlineto
          -8 hlineto
          -40 61 -37 40 -34 20 rrcurveto
          21 -34 -42 10 -50 hhcurveto
          -180 -155 -131 -247 -96 hvcurveto
          -47 -123 -24 -121 -119 vvcurveto
          hintmask 10110000
          -52 callsubr
          113 79 38 105 76 vhcurveto
          -109 168 -50 callgsubr
        </CharString>
        <CharString name="dagger">
          -101 21 -21 1143 -20 26 -20 hstemhm
          182 908 hintmask 10110000
          717 913 rmoveto
          309 -30 64 286 -46 -5 -83 -7 -121 -8 rlinecurve
          hintmask 11010000
          -74 -6 141 413 rlineto
          -334 hlineto
          -32 -413 -297 26 -62 -286 305 26 -245 -909 rlineto
          333 hlineto
          endchar
        </CharString>
        <CharString name="daggerdbl">
          -101 21 -21 hstem
          47 1047 vstem
          731 786 rmoveto
          -8 164 309 -26 62 286 -161 -14 -163 -12 133 372 rlineto
          -334 hlineto
          -13 -184 -13 -188 -312 26 -59 -286 324 26 -82 -164 6 -180 -311 27 -62 -287 123 12 201 15 -133 -373 rlineto
          333 hlineto
          15 185 12 188 311 -27 60 287 -72 -8 -53 -4 -35 -1 rlinecurve
          -37 -1 -54 -5 -71 -8 rrcurveto
          endchar
        </CharString>
        <CharString name="daletdageshhb">
          -76 -1 callgsubr
          193.350006104 -57 callsubr
          1254 -24 callsubr
          -1085 -37 callsubr
          621 hlineto
          -53 -38 -62 -67 -23 -105 -167 -786 rcurveline
          26 callsubr
          166 779 31 145 51 48 138 49 rlinecurve
          -887 -261 -106 callgsubr
        </CharString>
        <CharString name="degree">
          -347 750 237 496 -20 hstemhm
          166 237 47 callgsubr
          166 1114 rmoveto
          -6 -195 177 -174 198 5 rrcurveto
          65 61 16 32 57 hvcurveto
          57 32 45 44 33 57 rrcurveto
          33 57 17 61 65 vvcurveto
          64 -16 61 -33 57 vhcurveto
          -33 58 -45 46 -57 33 rrcurveto
          33 -57 -62 17 -65 hhcurveto
          -198 5 -177 -181 6 -193 rrcurveto
          237 hmoveto
          36 13 31 25 26 vhcurveto
          27 26 31 13 37 hhcurveto
          36 31 -13 -27 25 hvcurveto
          26 -27 13 -31 -35 vvcurveto
          -34 -13 -30 -27 -25 vhcurveto
          -25 -26 -30 -13 -35 hhcurveto
          -35 -31 13 25 -27 hvcurveto
          -26 25 -13 30 34 vvcurveto
          endchar
        </CharString>
        <CharString name="dieresis">
          -76 1257 0 callsubr
          336 856 hintmask 01100000
          336 21 callsubr
          hintmask 10100000
          -95 callsubr
          vhcurveto
          hintmask 01100000
          -53 callsubr
          hintmask 10100000
          -94 callgsubr
          vhcurveto
          hintmask 01100000
          -69 callgsubr
          endchar
        </CharString>
        <CharString name="divide">
          47 callsubr
          hstemhm
          432 313 hintmask 00000000
          hintmask 11000000
          432 1071 -2 callgsubr
          -330 -213 rmoveto
          -272 975 272 vlineto
          -645 -485 -2 callgsubr
          endchar
        </CharString>
        <CharString name="dollar">
          -23 -121 1677 hstem
          61 1115 vstem
          1176 1329 rmoveto
          -102 50 -105 30 -107 10 31 137 rcurveline
          -168 hlineto
          -29 -133 -149 -10 -120 -42 -89 -75 rlinecurve
          -89 -75 -44 -96 -117 vvcurveto
          -172 104 -132 185 -83 vhcurveto
          71 -34 47 -28 21 -22 rrcurveto
          22 -21 11 -24 -27 vvcurveto
          -70 -58 -35 -116 -135 -128 34 79 -168 vhcurveto
          -311 vlineto
          84 -51 116 -30 147 -11 -41 -191 rcurveline
          168 hlineto
          38 187 152 9 120 41 89 75 rlinecurve
          89 75 44 96 119 vvcurveto
          168 -83 110 -187 91 vhcurveto
          -79 39 -53 31 -26 24 rrcurveto
          -26 25 -13 30 35 vvcurveto
          53 53 43 88 91 99 -24 -47 105 vhcurveto
          endchar
        </CharString>
        <CharString name="dotaccent">
          -531 -23 callsubr
          350 hstem
          319 418 vstem
          319 1382 rmoveto
          -93 58 -48 133 151 76 70 139 91 -63 50 -127 -152 -76 -70 -139 vhcurveto
          endchar
        </CharString>
        <CharString name="dotlessi">
          -12 callsubr
          hstem
          23 628 vstem
          23 hmoveto
          -30 callgsubr
        </CharString>
        <CharString name="e">
          -46 callsubr
          hstemhm
          84 1057 hintmask 11011000
          965 356 -105 callsubr
          hintmask 11101000
          -84 callsubr
          endchar
        </CharString>
        <CharString name="eacute">
          -46 callsubr
          108 23 305 -20 hstemhm
          84 1160 hintmask 11011110
          523 -93 callgsubr
          442 -908 -105 callsubr
          hintmask 11101110
          -84 callsubr
          endchar
        </CharString>
        <CharString name="ecircumflex">
          -46 callsubr
          108 -9 callsubr
          84 1129 hintmask 11010101
          1213 -86 callsubr
          hintmask 11011011
          -77 callgsubr
          hintmask 11010101
          -55 callgsubr
          18 -885 -105 callsubr
          hintmask 11100101
          -84 callsubr
          endchar
        </CharString>
        <CharString name="edieresis">
          -46 callsubr
          124 0 callsubr
          84 1108 hintmask 11010110
          336 21 callsubr
          hintmask 11011010
          -95 callsubr
          vhcurveto
          hintmask 11010110
          -53 callsubr
          hintmask 11011010
          -94 callgsubr
          vhcurveto
          hintmask 11010110
          -69 callgsubr
          142 -1028 -105 callsubr
          hintmask 11100110
          -84 callsubr
          endchar
        </CharString>
        <CharString name="egrave">
          -46 callsubr
          108 328 hstemhm
          84 1057 hintmask 11011100
          919 -92 callgsubr
          282 -885 -105 callsubr
          hintmask 11101100
          -84 callsubr
          endchar
        </CharString>
        <CharString name="eight">
          -23 -20 282 -261 -21 1505 -20 hstemhm
          49 1108 hintmask 01110000
          725 1485 rmoveto
          -304 3 -200 -183 4 -240 rrcurveto
          -125 52 -103 104 -81 vhcurveto
          -221 -78 -111 -139 -201 vvcurveto
          -107 44 -86 87 -66 vhcurveto
          -66 88 119 -33 150 hhcurveto
          164 129 39 78 94 hvcurveto
          94 78 47 108 137 vvcurveto
          156 -65 111 -123 95 vhcurveto
          83 27 68 46 51 67 rrcurveto
          52 67 26 77 85 vvcurveto
          99 -39 81 -77 61 vhcurveto
          62 -77 -106 31 -133 hhcurveto
          -18 -283 rmoveto
          49 45 -33 -65 -72 -50 -73 -77 -29 hvcurveto
          -52 25 -34 59 51 vvcurveto
          39 12 32 23 26 vhcurveto
          27 24 28 13 32 hhcurveto
          -123 -594 rmoveto
          79 -53 39 -64 -77 vvcurveto
          hintmask 10110000
          -91 -62 -61 -93 -80 -53 51 72 vhcurveto
          hintmask 01110000
          89 57 74 113 60 vhcurveto
          endchar
        </CharString>
        <CharString name="ellipsis">
          589 -4 -21 hstem
          12 1598 vstem
          12 127 rmoveto
          -78 callsubr
          588 hmoveto
          -78 callsubr
          586 hmoveto
          -78 callsubr
          endchar
        </CharString>
        <CharString name="emdash">
          755 416 274 hstem
          33 1911 40 callgsubr
          1851 hlineto
          60 39 callsubr
          endchar
        </CharString>
        <CharString name="endash">
          -228 416 274 hstem
          33 928 40 callgsubr
          868 hlineto
          60 39 callsubr
          endchar
        </CharString>
        <CharString name="equal">
          -52 399 271 104 266 hstem
          102 975 vstem
          102 1040 rmoveto
          -266 975 266 vlineto
          -975 -370 rmoveto
          -271 975 271 vlineto
          endchar
        </CharString>
        <CharString name="exclam">
          -588 -4 -21 1487 -20 hstem
          12 695 vstem
          125 516 rmoveto
          328 hlineto
          254 946 rlineto
          -426 hlineto
          -269 -1335 rmoveto
          -100 70 -52 117 147 4 callsubr
        </CharString>
        <CharString name="exclamdown">
          -588 15 callsubr
          hstem
          -109 695 vstem
          586 -13 callgsubr
          -113 -393 rmoveto
          -328 hlineto
          -254 -946 rlineto
          426 hlineto
          endchar
        </CharString>
        <CharString name="f">
          -371 9 callgsubr
          1334 19 callsubr
          1258 vstem
          649 842 -95 callgsubr
          endchar
        </CharString>
        <CharString name="finalkafdageshhb">
          -103 9 callgsubr
          1079 173 253 302 hstem
          198.350006104 -57 callsubr
          106 -21 callsubr
          -1 -128 -154 -33 vhcurveto
          -260 -1223 -3 callsubr
          259 1221 rlineto
          295 63 -57 11 callsubr
          -173 -16 0 hvcurveto
          142 -539 -106 callgsubr
        </CharString>
        <CharString name="finalpedageshhb">
          98 9 callgsubr
          1273 173 52 35 callgsubr
          556.350006104 -81 callgsubr
          hintmask 11011000
          2 callsubr
          hintmask 11101000
          -67 callsubr
          233 540 -106 callgsubr
        </CharString>
        <CharString name="five">
          -23 -20 311 -290 -21 1159 323 hstemhm
          20 1158 hintmask 01110000
          639 1139 rmoveto
          471 hlineto
          68 323 rlineto
          -813 hlineto
          -215 -749 122 -92 23 8 30 7 39 7 rlinecurve
          7 39 37 3 35 hhcurveto
          115 72 -69 -101 hvcurveto
          hintmask 10110000
          -128 -92 -64 -185 -55 -61 8 17 -68 vhcurveto
          -68 17 -60 24 -53 30 rrcurveto
          -324 vlineto
          36 -26 56 -20 77 -15 rrcurveto
          -15 77 82 -7 86 hhcurveto
          203 156 47 94 107 hvcurveto
          107 95 54 134 174 vvcurveto
          133 -38 105 -75 78 vhcurveto
          79 -75 -97 39 -121 hhcurveto
          -27 -25 -1 -3 -23 hvcurveto
          endchar
        </CharString>
        <CharString name="florin">
          -23 9 callgsubr
          1229 297 449 -20 hstem
          -53 1239 vstem
          784 737 rmoveto
          207 hlineto
          66 297 rlineto
          -209 hlineto
          18 78 rlineto
          43 10 29 21 47 hhcurveto
          41 43 -11 -22 45 hvcurveto
          105 282 rlineto
          39 -80 -89 19 -97 hhcurveto
          -249 -133 -116 -249 -57 hvcurveto
          -20 -88 -178 -90 -39 -203 rlineto
          151 hlineto
          -166 -788 rlineto
          -83 -17 -55 -42 -94 hhcurveto
          -41 -38 6 12 -37 hvcurveto
          -307 vlineto
          -18 65 69 -9 73 hhcurveto
          240 156 130 245 52 hvcurveto
          endchar
        </CharString>
        <CharString name="four">
          -23 21 -21 283 295 884 -20 hstem
          -10 1173 vstem
          915 283 rmoveto
          150 hlineto
          61 295 rlineto
          -149 hlineto
          186 884 rlineto
          -360 hlineto
          -762 -923 -51 -256 rlineto
          549 hlineto
          -60 -283 rlineto
          377 hlineto
          -256 578 rmoveto
          -209 hlineto
          195 233 42 50 38 57 34 65 rlinecurve
          9 hlineto
          -21 -69 -20 -71 -19 -71 rrcurveto
          endchar
        </CharString>
        <CharString name="fraction">
          -963 -38 callsubr
          -563 1380 vstem
          -266 hmoveto
          1083 -23 callgsubr
          -291 hlineto
          -1089 -65 callsubr
          endchar
        </CharString>
        <CharString name="g">
          -66 -492 254 -233 -21 846 244 322 233 -20 -20 40 -20 hstemhm
          -133 1368 hintmask 01000110
          1194 926 rmoveto
          hintmask 01001010
          41 207 rlineto
          -399 hlineto
          hintmask 01100110
          -22 5 -30 5 -38 4 rrcurveto
          4 -37 -36 2 -34 hhcurveto
          -155 -122 -38 -77 -91 hvcurveto
          -91 -77 -45 -103 -131 vvcurveto
          -119 44 -93 87 -69 vhcurveto
          -135 -61 -68 -71 -95 vvcurveto
          -56 35 -52 49 -31 vhcurveto
          -192 -63 -88 -93 -131 vvcurveto
          -89 42 -70 84 -50 vhcurveto
          -51 83 113 -25 141 hhcurveto
          207 159 39 78 112 hvcurveto
          113 78 56 111 143 vvcurveto
          82 -25 63 -51 44 vhcurveto
          -51 45 -83 30 -116 17 -137 18 rcurveline
          -74 11 -37 19 29 vvcurveto
          25 21 12 27 15 vhcurveto
          -9 32 41 -4 51 hhcurveto
          139 113 39 78 87 hvcurveto
          87 79 43 103 127 vvcurveto
          36 -3 31 -7 27 vhcurveto
          -534 -182 rmoveto
          hintmask 01110010
          105 50 128 75 -5 vhcurveto
          41 20 -32 -63 -60 -11 -53 -23 -46 hvcurveto
          -45 -22 -28 -23 -35 hhcurveto
          hintmask 01100110
          -45 -22 31 63 hvcurveto
          -25 -737 rmoveto
          109 -12 39 -22 -48 vvcurveto
          hintmask 10000110
          -71 -89 -40 -167 -113 -57 29 57 63 59 41 104 15 vhcurveto
          endchar
        </CharString>
        <CharString name="gereshhb">
          -699 789 501 hstem
          94 545 vstem
          631 1290 -30 callsubr
        </CharString>
        <CharString name="germandbls">
          249 9 callgsubr
          472 282 -261 -21 1587 -20 hstemhm
          -260 1659 hintmask 10111000
          645 1067 rmoveto
          129 27 76 68 104 hhcurveto
          100 58 -42 -77 -59 -34 -44 -95 -53 hvcurveto
          -82 -45 -55 -42 -28 -39 rrcurveto
          -28 -39 -14 -50 -61 vvcurveto
          -100 49 -67 117 -75 vhcurveto
          63 -41 37 -28 13 -15 rrcurveto
          hintmask 11011000
          13 -14 7 -18 -21 vvcurveto
          -37 -36 -35 -79 -37 -45 5 11 -52 vhcurveto
          -51 11 -46 16 -39 19 rrcurveto
          -299 vlineto
          -30 75 92 -15 107 hhcurveto
          319 181 159 234 129 -58 85 -127 68 hvcurveto
          -45 23 -29 19 -14 14 rrcurveto
          -13 15 -7 17 19 vvcurveto
          31 39 34 78 37 vhcurveto
          148 69 65 104 157 vvcurveto
          117 -46 91 -91 66 vhcurveto
          66 -91 -126 33 -162 hhcurveto
          -179 -140 -37 -74 -99 hvcurveto
          -99 -74 -67 -120 -35 -166 -244 -1151 rcurveline
          -87 -19 -45 -77 callsubr
          endchar
        </CharString>
        <CharString name="gershayimhb">
          -189 789 501 hstem
          94 1041 vstem
          631 1290 -67 callgsubr
        </CharString>
        <CharString name="gimeldageshhb">
          -227 -20 20 -3 callgsubr
          555 -20 hstemhm
          189.350006104 -81 callgsubr
          hintmask 10111000
          -55 callsubr
          hintmask 01111000
          -18 callgsubr
          -11 -523 -106 callgsubr
        </CharString>
        <CharString name="grave">
          -76 -23 callsubr
          49 callgsubr
          485 490 vstem
          975 -92 callgsubr
          endchar
        </CharString>
        <CharString name="greater">
          -52 1307 -20 hstem
          109 972 vstem
          684 725 rmoveto
          -575 -252 rlineto
          -297 vlineto
          972 451 rlineto
          172 vlineto
          -972 508 rlineto
          -299 vlineto
          endchar
        </CharString>
        <CharString name="greaterequal">
          -52 0 270 hstem
          113 974 vstem
          688 831 rmoveto
          -575 -249 rlineto
          -297 vlineto
          974 448 rlineto
          172 vlineto
          -974 508 rlineto
          -297 vlineto
          -846 vmoveto
          -270 974 270 vlineto
          endchar
        </CharString>
        <CharString name="guillemotleft">
          65 76 1011 hstem
          61 1231 vstem
          1032 1087 rmoveto
          -424 -495 rlineto
          -10 vlineto
          195 -506 334 137 -123 358 278 306 rlineto
          -823 204 -15 callsubr
        </CharString>
        <CharString name="guillemotright">
          65 35 1014 hstem
          -14 1228 vstem
          244 35 rmoveto
          424 497 rlineto
          11 vlineto
          -195 506 -332 -138 121 -358 -276 -305 rlineto
          821 -205 46 callsubr
          -182 478 -334 24 callsubr
        </CharString>
        <CharString name="guilsinglleft">
          -492 76 1005 hstem
          61 672 vstem
          469 1081 -15 callsubr
        </CharString>
        <CharString name="guilsinglright">
          -492 43 1006 hstem
          -14 671 vstem
          250 43 46 callsubr
          -184 478 -332 24 callsubr
        </CharString>
        <CharString name="h">
          63 21 -21 15 callsubr
          hstem
          23 1155 vstem
          639 hmoveto
          -41 callgsubr
          -115 -91 -43 -86 -67 vhcurveto
          -8 hlineto
          35 83 30 95 23 105 53 249 36 callsubr
          387 hlineto
          116 553 rlineto
          195 40 62 98 83 -9 callgsubr
        </CharString>
        <CharString name="hedageshhb">
          138 21 -21 587 168 260 300 hstemhm
          582.350006104 11 callgsubr
          hintmask 11110000
          -50 callsubr
          430 -517 -107 callsubr
          -701 -760 rmoveto
          -20 callsubr
          44 callgsubr
          endchar
        </CharString>
        <CharString name="hungarumlaut">
          -76 -23 callsubr
          49 callgsubr
          211 1042 vstem
          211 -23 callsubr
          rmoveto
          203 hlineto
          228 158 128 102 29 47 rrcurveto
          21 -371 vlineto
          -23 -40 -34 -51 -47 -62 -46 -62 -38 -49 -29 -35 rrcurveto
          463 hmoveto
          -29 203 vlineto
          218 151 125 102 33 54 rrcurveto
          21 -372 vlineto
          -28 -51 -53 -78 -77 -103 rrcurveto
          endchar
        </CharString>
        <CharString name="hyphen">
          -537 393 312 hstem
          23 616 vstem
          86 705 rmoveto
          -63 -312 rlineto
          552 hlineto
          64 312 rlineto
          endchar
        </CharString>
        <CharString name="i">
          -12 callsubr
          hstem
          23 702 vstem
          309 -16 callsubr
          -286 -1382 rmoveto
          -30 callgsubr
        </CharString>
        <CharString name="iacute">
          37 callgsubr
          23 305 -20 hstem
          23 992 vstem
          294 -93 callgsubr
          -32 -131 -28 callsubr
        </CharString>
        <CharString name="icircumflex">
          -545 21 13 callsubr
          -7 936 hintmask 11010100
          929 -64 callgsubr
          -401 -108 -28 callsubr
        </CharString>
        <CharString name="idieresis">
          -12 callsubr
          144 0 callsubr
          23 924 hintmask 11011000
          91 -88 callgsubr
          -316 -251 -28 callsubr
        </CharString>
        <CharString name="igrave">
          37 callgsubr
          49 callgsubr
          23 634 vstem
          657 -92 callgsubr
          -398 -1241 rmoveto
          -30 callgsubr
        </CharString>
        <CharString name="integral">
          -332 9 callgsubr
          hstem
          -29 906 vstem
          219 -68 rmoveto
          -65 -22 -35 -64 -35 -54 16 33 -73 vhcurveto
          -317 vlineto
          -37 71 78 -19 85 hhcurveto
          271 140 137 253 hvcurveto
          1232 vlineto
          75 28 28 56 33 59 -16 -33 85 vhcurveto
          317 vlineto
          37 -73 -80 18 -87 hhcurveto
          -272 -146 -134 -255 hvcurveto
          endchar
        </CharString>
        <CharString name="j">
          -545 30 callgsubr
          hstem
          -264 997 vstem
          317 14 callsubr
          153 72 84 125 -4 callgsubr
          340 -249 21 callgsubr
          -247 -1166 rlineto
          -98 -22 -58 -49 -95 hhcurveto
          -37 -38 6 12 -37 -29 callsubr
          240 161 141 257 53 hvcurveto
          endchar
        </CharString>
        <CharString name="k">
          53 29 callsubr
          23 1351 vstem
          735 1556 21 callgsubr
          -325 -1556 -3 callsubr
          69 338 101 53 139 -391 rlineto
          438 hlineto
          -274 621 491 512 rlineto
          -442 hlineto
          -242 -263 -46 -49 -51 -66 -56 -85 rlinecurve
          -9 hlineto
          34 97 23 75 11 51 rrcurveto
          endchar
        </CharString>
        <CharString name="kafdageshhb">
          -107 -20 312 295 173 253 302 hstem
          261.350006104 193.869995117 -79 callgsubr
          172 -539 -106 callgsubr
        </CharString>
        <CharString name="l">
          -545 21 -21 hstem
          23 716 vstem
          23 hmoveto
          41 callsubr
          -2 callsubr
          endchar
        </CharString>
        <CharString name="lameddageshhb">
          -80 -1 callgsubr
          220.350006104 -57 callsubr
          1232 -24 callsubr
          -652 hlineto
          -33 callsubr
          rlineto
          -847 -298 -106 callgsubr
        </CharString>
        <CharString name="less">
          -52 1307 -20 hstem
          88 973 vstem
          88 627 rmoveto
          973 -451 rlineto
          297 vlineto
          -576 252 46 callgsubr
          -973 -508 rlineto
          endchar
        </CharString>
        <CharString name="lessequal">
          -52 0 270 hstem
          82 979 vstem
          86 733 rmoveto
          975 -448 rlineto
          297 vlineto
          -576 249 46 callgsubr
          -975 -508 rlineto
          -4 -635 rmoveto
          42 callgsubr
        </CharString>
        <CharString name="logicalnot">
          47 callsubr
          hstem
          786 271 vstem
          1057 238 rmoveto
          620 -975 -272 704 -348 vlineto
          endchar
        </CharString>
        <CharString name="m">
          685 -45 callgsubr
          40 -20 hstemhm
          23 1777 hintmask 10110000
          645 hmoveto
          -20 callsubr
          111 543 rlineto
          201 41 56 102 99 hhcurveto
          43 27 -29 -53 -51 -5 -45 -9 -37 hvcurveto
          -129 -631 -3 callsubr
          125 614 rlineto
          15 72 7 68 65 vvcurveto
          220 -99 114 -188 -148 -109 -66 -141 -87 vhcurveto
          -8 hlineto
          133 -35 -79 74 -156 hhcurveto
          -77 -63 -16 -31 -51 hvcurveto
          -51 -31 -45 -53 -41 -76 rrcurveto
          -8 hlineto
          hintmask 11010000
          16 187 -29 callgsubr
          118 551 rlineto
          195 43 57 100 91 hhcurveto
          48 24 -31 -63 -21 -5 -40 -10 -60 hvcurveto
          endchar
        </CharString>
        <CharString name="memdageshhb">
          214 31 callgsubr
          403 132 20 -20 hstemhm
          620.350006104 11 callgsubr
          hintmask 11101000
          -78 callgsubr
          hintmask 11011000
          41 callgsubr
          hintmask 11101000
          44 callsubr
          124 -403 -106 callgsubr
        </CharString>
        <CharString name="n">
          63 -45 callgsubr
          40 -20 hstemhm
          23 1155 hintmask 10110000
          639 hmoveto
          -27 callgsubr
          hintmask 11010000
          -36 callgsubr
        </CharString>
        <CharString name="nine">
          -23 -4 callsubr
          106 1031 vstem
          745 655 rmoveto
          -27 -129 -48 -94 -70 -58 rrcurveto
          -58 -69 -97 -29 -125 hhcurveto
          -74 -68 12 25 -61 hvcurveto
          -314 vlineto
          -20 64 70 -10 77 hhcurveto
          332 248 151 301 137 hvcurveto
          69 151 34 174 195 vvcurveto
          341 -168 190 -307 vhcurveto
          -346 3 -209 -250 2 -349 rrcurveto
          -124 29 -99 59 -73 vhcurveto
          -73 59 79 -37 101 hhcurveto
          128 94 47 127 79 hvcurveto
          -65 521 rmoveto
          57 41 -58 -88 -67 -17 -58 -34 -47 hvcurveto
          -47 -34 -42 -23 -49 hhcurveto
          -61 -31 48 96 68 16 58 32 47 hvcurveto
          47 33 40 24 49 hhcurveto
          endchar
        </CharString>
        <CharString name="nonmarkingreturn">
          -167 endchar
        </CharString>
        <CharString name="notequal">
          -52 358 271 186 268 236 -20 hstem
          72 1015 vstem
          451 129 rmoveto
          106 229 rlineto
          530 271 -405 hlineto
          86 186 rlineto
          319 268 -196 hlineto
          63 131 -247 105 -109 -236 rlineto
          -526 -268 401 hlineto
          -86 -186 rlineto
          -315 -271 190 hlineto
          -59 -127 rlineto
          endchar
        </CharString>
        <CharString name="ntilde">
          63 -45 callgsubr
          40 -20 106 35 callsubr
          23 1201 hintmask 10101011
          1034 -44 callsubr
          hintmask 10110101
          -90 callsubr
          hintmask 10110011
          -42 callgsubr
          -585 -1581 rmoveto
          -27 callgsubr
          hintmask 11001011
          -36 callgsubr
        </CharString>
        <CharString name="numbersign">
          112 21 -21 393 238 200 242 389 -20 hstem
          14 1344 vstem
          1010 631 rmoveto
          57 200 rlineto
          270 hlineto
          21 242 rlineto
          -221 hlineto
          110 33 callgsubr
          -168 hlineto
          111 33 callgsubr
          -285 hlineto
          -20 -242 rlineto
          235 hlineto
          -57 -200 rlineto
          -266 hlineto
          -21 -238 rlineto
          219 hlineto
          -112 -393 rlineto
          270 hlineto
          113 393 rlineto
          168 hlineto
          -113 -393 rlineto
          270 hlineto
          111 393 rlineto
          293 hlineto
          20 238 rlineto
          -514 hmoveto
          -168 hlineto
          58 200 rlineto
          168 hlineto
          endchar
        </CharString>
        <CharString name="nundageshhb">
          -306 31 callgsubr
          555 -20 hstem
          105.350006104 193.869995117 -68 callsubr
          -45 -539 -106 callgsubr
        </CharString>
        <CharString name="o">
          -14 callgsubr
          hstem
          84 1075 vstem
          520 -20 -106 callsubr
        </CharString>
        <CharString name="oacute">
          -14 callgsubr
          108 23 305 -20 hstem
          84 1170 vstem
          533 -93 callgsubr
          -13 -1284 -106 callsubr
        </CharString>
        <CharString name="ocircumflex">
          -14 callgsubr
          108 -9 callsubr
          84 1099 hintmask 11010100
          1183 -64 callgsubr
          -397 -1261 -106 callsubr
        </CharString>
        <CharString name="odieresis">
          -14 callgsubr
          124 0 callsubr
          84 1089 hintmask 11011000
          317 -88 callgsubr
          -284 -1404 -106 callsubr
        </CharString>
        <CharString name="oe">
          591 1 -21 442 242 489 -20 hstem
          84 1673 vstem
          1581 356 -52 callgsubr
          -54 49 99 hvcurveto
          16 59 vlineto
          392 216 145 271 95 -37 -26 callsubr
          -125 hhcurveto
          -153 -124 -42 -83 -96 hvcurveto
          83 -60 -92 42 -125 hhcurveto
          -241 -191 -129 -228 -105 hvcurveto
          -53 -114 -26 -127 -139 -43 callsubr
          140 111 37 75 83 vhcurveto
          -75 61 99 -37 135 hhcurveto
          83 74 7 15 64 hvcurveto
          65 15 70 26 76 39 -11 callsubr
          9 61 22 53 35 45 rrcurveto
          45 35 38 23 40 hhcurveto
          57 27 -33 -43 -92 -87 -59 -147 hvcurveto
          -479 198 -97 callsubr
        </CharString>
        <CharString name="ogonek">
          -758 -503 -21 51 -21 hstemhm
          -190 469 hintmask 01100000
          27 hmoveto
          -156 -101 -61 -92 -116 vvcurveto
          hintmask 11100000
          -63 23 -52 45 -40 vhcurveto
          -40 45 61 -20 75 hhcurveto
          70 66 10 20 63 hvcurveto
          222 vlineto
          -17 -47 -39 -8 -31 hhcurveto
          -35 -18 24 27 45 23 43 40 45 hvcurveto
          21 22 42 38 65 53 rrcurveto
          endchar
        </CharString>
        <CharString name="ograve">
          -14 callgsubr
          108 49 callgsubr
          84 1075 vstem
          894 -92 callgsubr
          -138 -1261 -106 callsubr
        </CharString>
        <CharString name="one">
          -23 -38 callsubr
          150 931 vstem
          385 hmoveto
          49 callsubr
          307 -23 callgsubr
          -311 hlineto
          -620 -383 151 -252 203 125 35 23 44 35 52 45 rlinecurve
          -32 -83 -25 -85 -19 -88 rrcurveto
          endchar
        </CharString>
        <CharString name="ordfeminine">
          -384 741 170 381 183 -13 -20 33 -20 hstemhm
          139 273 -273 801 hintmask 10010100
          584 827 rmoveto
          -9 -86 rlineto
          195 hlineto
          hintmask 10100100
          170 721 rlineto
          -199 hlineto
          hintmask 10010100
          -36 -86 rlineto
          -9 hlineto
          -36 39 -34 27 -32 13 rrcurveto
          13 -31 -37 7 -43 hhcurveto
          hintmask 10011000
          -131 -108 -93 -149 -60 hvcurveto
          -30 -75 -15 -77 -80 vvcurveto
          -176 94 -96 119 89 75 33 65 59 vhcurveto
          -94 84 rmoveto
          -41 -28 37 64 43 6 44 13 45 hvcurveto
          hintmask 11000100
          13 45 18 35 22 27 rrcurveto
          27 23 24 14 26 hhcurveto
          44 28 -43 -71 hvcurveto
          hintmask 10011000
          -134 -57 -133 -91 vhcurveto
          endchar
        </CharString>
        <CharString name="ordmasculine">
          -394 727 205 342 205 hstemhm
          139 273 190 272 hintmask 00000000
          hintmask 11110000
          874 1182 rmoveto
          185 -110 112 -191 -134 -106 -44 -87 -78 vhcurveto
          -77 -87 -39 -115 -142 vvcurveto
          -84 26 -67 53 -51 vhcurveto
          -50 53 75 -25 96 hhcurveto
          267 -3 169 192 -4 266 rrcurveto
          -272 hmoveto
          -73 -13 -60 -25 -47 vhcurveto
          -47 -25 -33 -23 -39 hhcurveto
          -37 -18 28 56 75 12 61 25 49 hvcurveto
          49 25 33 24 40 hhcurveto
          43 12 -32 -60 hvcurveto
          endchar
        </CharString>
        <CharString name="oslash">
          75 1 -21 39 -21 879 276 -14 callsubr
          66 1159 hintmask 01011000
          1225 1108 rmoveto
          -127 109 -105 -121 rlineto
          38 -76 -83 19 -91 hhcurveto
          -264 -205 -132 -228 -109 hvcurveto
          -54 -113 -27 -126 -138 vvcurveto
          -113 31 -96 63 -78 vhcurveto
          hintmask 10101000
          -112 -131 127 -109 118 140 rlineto
          -33 74 79 -16 85 hhcurveto
          130 114 32 63 99 hvcurveto
          99 63 76 88 54 113 rrcurveto
          54 113 27 126 139 vvcurveto
          103 -27 89 -55 76 vhcurveto
          -671 -534 rmoveto
          239 119 192 134 -5 vhcurveto
          31 28 -10 -19 23 hvcurveto
          52 -199 rmoveto
          -248 -12 -91 -141 -143 hhcurveto
          -29 -24 5 9 -19 hvcurveto
          endchar
        </CharString>
        <CharString name="otilde">
          -14 callgsubr
          106 35 callsubr
          84 1098 hintmask 11010110
          992 -44 callsubr
          hintmask 11101010
          -90 callsubr
          hintmask 11100110
          -42 callgsubr
          -662 -1601 -106 callsubr
        </CharString>
        <CharString name="overscore">
          -289 1554 246 hstem
          183 987 vstem
          240 1800 rmoveto
          -57 -246 rlineto
          929 hlineto
          58 246 rlineto
          endchar
        </CharString>
        <CharString name="p">
          17 callsubr
          -82 -23 callsubr
          hintmask 11011000
          559 1006 rmoveto
          hintmask 11101000
          12 127 rlineto
          -309 hlineto
          -344 -1625 -3 callsubr
          51 246 29 137 19 123 8 111 rlinecurve
          8 hlineto
          -97 59 77 -48 95 hhcurveto
          91 84 32 64 77 hvcurveto
          77 65 62 92 47 119 rrcurveto
          47 120 23 128 135 vvcurveto
          130 -30 102 -59 74 vhcurveto
          hintmask 11011000
          75 -59 -82 37 -104 hhcurveto
          -108 -86 -49 -98 -64 hvcurveto
          111 -164 rmoveto
          57 29 -48 -96 -67 -9 -66 -19 -64 hvcurveto
          -18 -64 -24 -51 -29 -38 rrcurveto
          -38 -29 -31 -19 -32 hhcurveto
          -56 -32 -10 callsubr
        </CharString>
        <CharString name="paragraph">
          106 1327 229 hstem
          647 191 157 191 vstem
          995 -260 rmoveto
          191 1816 -633 hlineto
          -315 -136 -173 -341 -335 132 -166 288 47 42 6 12 36 hvcurveto
          -819 191 1587 157 vlineto
          endchar
        </CharString>
        <CharString name="parenleft">
          -445 -324 1827 hstem
          68 327 vstem
          512 -324 rmoveto
          -35 87 -28 103 -22 117 rrcurveto
          -21 117 -11 109 100 vvcurveto
          431 161 388 347 375 vhcurveto
          -323 hlineto
          -351 -359 -161 -378 -440 vvcurveto
          -115 14 -117 28 -119 vhcurveto
          28 -119 36 -100 45 -80 rrcurveto
          endchar
        </CharString>
        <CharString name="parenright">
          -445 -324 1827 hstemhm
          -133 827 -327 327 hintmask 11000000
          248 1503 rmoveto
          hintmask 10100000
          36 -92 29 -104 21 -115 rrcurveto
          22 -115 11 -107 -100 vvcurveto
          -437 -159 -388 -341 -369 vhcurveto
          326 hlineto
          170 175 126 184 82 191 rrcurveto
          82 191 41 210 227 vvcurveto
          118 -13 117 -27 116 vhcurveto
          -27 116 -37 99 -47 83 rrcurveto
          endchar
        </CharString>
        <CharString name="pedageshhb">
          97 -20 300 480 173 73 35 callgsubr
          599.350006104 -81 callgsubr
          hintmask 11011000
          2 callgsubr
          hintmask 11101000
          -79 callsubr
          240 519 -106 callgsubr
        </CharString>
        <CharString name="percent">
          667 27 callsubr
          -152 242 344 28 callgsubr
          1739 -762 291 hintmask 0011000101000000
          4 callgsubr
          hintmask 0011000110000000
          -19 callgsubr
          hintmask 0011000101000000
          23 callgsubr
          hintmask 0011001001000000
          17 callgsubr
          hintmask 0011010010000000
          -45 callsubr
          hintmask 0100100100100000
          -75 callgsubr
          hintmask 0011010010000000
          37 92 19 101 109 vvcurveto
          hintmask 1000100100100000
          -344 80 rmoveto
          39 14 -25 -59 -58 callgsubr
          endchar
        </CharString>
        <CharString name="period">
          -584 -4 -21 hstem
          0 424 vstem
          127 vmoveto
          -78 callsubr
          endchar
        </CharString>
        <CharString name="periodcentered">
          -584 530 385 hstem
          115 424 vstem
          115 684 rmoveto
          -99 65 -55 115 151 93 74 156 99 -72 56 -109 -75 -60 -21 -42 -43 vhcurveto
          -43 -41 -22 -56 -71 vvcurveto
          endchar
        </CharString>
        <CharString name="perthousand">
          1486 27 callsubr
          434 28 callgsubr
          2558 -1581 291 528 291 hintmask 0011001010000000
          4 callgsubr
          hintmask 0001001100000000
          -19 callgsubr
          hintmask 0011001010000000
          23 callgsubr
          hintmask 0010010010000000
          17 callgsubr
          hintmask 0101100101100000
          -45 callsubr
          -49 callgsubr
          819 hmoveto
          -49 callgsubr
          -1163 80 rmoveto
          36 callgsubr
          hintmask 1000000001000000
          -10 callgsubr
          819 hmoveto
          36 callgsubr
          hintmask 1000000000100000
          -10 callgsubr
          endchar
        </CharString>
        <CharString name="plus">
          47 callsubr
          hstem
          455 270 vstem
          102 586 rmoveto
          353 -348 270 348 352 272 33 callsubr
          endchar
        </CharString>
        <CharString name="plusminus">
          -52 0 270 424 271 352 -20 hstem
          455 270 vstem
          102 694 rmoveto
          353 -350 270 350 352 271 33 callsubr
          -695 vmoveto
          42 callgsubr
        </CharString>
        <CharString name="q">
          17 callsubr
          84 1137 hintmask 11011000
          643 111 rmoveto
          -43 -129 -30 -104 -17 -77 -68 -293 rcurveline
          392 hlineto
          hintmask 11101000
          344 1625 -63 callgsubr
          hintmask 11011000
          -41 63 -40 42 -38 22 rrcurveto
          22 -37 -49 11 -59 hhcurveto
          -181 -154 -131 -248 -96 hvcurveto
          -47 -123 -24 -122 -121 vvcurveto
          -3 -265 128 -167 178 4 rrcurveto
          100 75 32 99 73 hvcurveto
          -70 180 -50 callgsubr
        </CharString>
        <CharString name="qofdageshhb">
          177 9 callgsubr
          513 -21 587 193 216 26 callgsubr
          559.350006104 -57 callsubr
          1440 1071 rmoveto
          48 224 rlineto
          -1213 -37 callsubr
          787 hlineto
          -278 -473 -85 -145 -83 -224 -19 -93 rlinecurve
          -13 -61 rlineto
          385 hlineto
          13 61 23 111 67 166 104 177 rlinecurve
          -1217 -1007 rmoveto
          26 callsubr
          270 1272 8 callgsubr
          509 -20 -106 callgsubr
        </CharString>
        <CharString name="question">
          -212 -4 -21 1508 -20 hstem
          162 899 vstem
          256 516 rmoveto
          315 hlineto
          15 43 9 29 18 28 28 27 rlinecurve
          29 27 47 33 67 40 79 48 57 42 34 35 35 36 26 40 18 45 rrcurveto
          19 45 9 52 59 vvcurveto
          105 -40 83 -79 60 vhcurveto
          60 -79 -106 30 -134 hhcurveto
          -153 -154 -45 -90 -154 hvcurveto
          119 -283 rlineto
          73 125 104 36 84 hhcurveto
          60 30 -23 -47 -27 -12 -25 -25 -25 hvcurveto
          -24 -25 -42 -31 -59 -39 -65 -43 -47 -36 -29 -31 -29 -31 -24 -34 -18 -39 -18 -39 -14 -46 -10 -53 rrcurveto
          -92 -453 rmoveto
          -99 70 -53 116 148 4 callsubr
        </CharString>
        <CharString name="questiondown">
          -212 15 callsubr
          hstem
          -84 899 vstem
          801 -13 callgsubr
          -80 -389 rmoveto
          -315 hlineto
          -15 -43 -9 -28 -18 -28 -29 -27 rlinecurve
          -28 -27 -47 -34 -67 -40 -81 -49 -58 -43 -33 -35 -33 -35 -26 -39 -18 -45 rrcurveto
          -19 -44 -9 -52 -59 vvcurveto
          -105 39 -83 79 -60 vhcurveto
          -60 79 107 -30 134 hhcurveto
          156 154 45 90 151 hvcurveto
          -119 282 rlineto
          -72 -126 -104 -36 -83 hhcurveto
          -60 -30 21 49 27 12 25 24 25 hvcurveto
          25 25 42 31 59 39 63 41 46 35 29 31 30 31 24 35 19 39 19 39 14 46 10 55 rrcurveto
          endchar
        </CharString>
        <CharString name="quotedbl">
          -281 -6 callsubr
          182 856 3 callgsubr
          699 hmoveto
          157 528 rlineto
          -342 hlineto
          -73 -528 rlineto
          endchar
        </CharString>
        <CharString name="quotedblbase">
          -89 37 callsubr
          1046 -35 callgsubr
          494 23 8 callsubr
          -42 -115 -57 -159 -49 -129 -41 -99 rlinecurve
          287 hlineto
          40 62 44 76 49 90 49 90 42 84 34 77 rrcurveto
          endchar
        </CharString>
        <CharString name="quotedblleft">
          -214 -6 callsubr
          109 1042 -32 callsubr
          505 -22 rmoveto
          349 hlineto
          88 243 34 95 33 86 33 77 rlinecurve
          -289 hlineto
          -98 -155 -85 -160 -73 -164 rrcurveto
          endchar
        </CharString>
        <CharString name="quotedblright">
          -214 -6 callsubr
          94 1041 vstem
          631 1462 -67 callgsubr
        </CharString>
        <CharString name="quoteleft">
          -711 -6 callsubr
          109 546 -32 callsubr
          endchar
        </CharString>
        <CharString name="quoteright">
          -711 -6 callsubr
          94 545 vstem
          631 1462 -30 callsubr
        </CharString>
        <CharString name="quotesinglbase">
          -590 37 callsubr
          544 -35 callgsubr
          endchar
        </CharString>
        <CharString name="quotesingle">
          -724 -6 callsubr
          182 414 3 callgsubr
          endchar
        </CharString>
        <CharString name="r">
          -316 -45 callgsubr
          32 -20 28 -20 hstemhm
          23 958 hintmask 10011000
          553 944 rmoveto
          hintmask 11001000
          18 189 -29 callgsubr
          106 498 rlineto
          193 43 78 93 137 hhcurveto
          46 41 -7 -15 36 hvcurveto
          hintmask 10101000
          84 383 rlineto
          hintmask 10011000
          5 -16 -27 3 -37 hhcurveto
          -82 -66 -16 -33 -51 hvcurveto
          -51 -32 -47 -53 -43 -75 rrcurveto
          endchar
        </CharString>
        <CharString name="registered">
          477 -20 163 490 176 184 195 131 164 hstem
          113 163 259 280 148 282 207 -96 callsubr
          259 457 rmoveto
          -875 280 320 12 vlineto
          160 -320 rlineto
          285 hlineto
          -211 355 rlineto
          127 47 57 82 121 vvcurveto
          172 -135 98 -285 vhcurveto
          -10 -379 rmoveto
          184 8 vlineto
          92 48 -14 -72 -72 -34 -26 -104 hvcurveto
          endchar
        </CharString>
        <CharString name="reshdageshhb">
          -85 -3 callgsubr
          255 300 hstemhm
          267.350006104 11 callgsubr
          hintmask 11110000
          -56 callgsubr
          196 -534 -106 callgsubr
        </CharString>
        <CharString name="ring">
          -29 1237 168 170 168 hstem
          522 38 callgsubr
          vstem
          1059 -73 callsubr
          endchar
        </CharString>
        <CharString name="s">
          -183 -20 284 -263 -21 909 264 -14 callsubr
          31 956 hintmask 01011000
          987 1047 rmoveto
          72 -116 -118 34 -149 hhcurveto
          -297 -168 -129 -229 -144 62 -95 141 -77 hvcurveto
          69 -39 44 -29 17 -17 rrcurveto
          hintmask 10101000
          17 -17 9 -20 -23 vvcurveto
          -44 -45 -26 -91 -108 -100 23 67 -123 vhcurveto
          -311 vlineto
          -42 89 119 -21 148 hhcurveto
          325 179 148 265 139 -75 106 -150 75 hvcurveto
          -95 47 -39 22 39 vvcurveto
          45 25 23 51 68 102 -37 -57 88 vhcurveto
          endchar
        </CharString>
        <CharString name="samekhdageshhb">
          97 -19 308 -287 -21 606 173 254 301 -14 callsubr
          563.350006104 -81 callgsubr
          hintmask 01101100
          -59 callsubr
          hintmask 10110100
          -48 callsubr
          -54 -254 -106 callgsubr
        </CharString>
        <CharString name="section">
          -175 -25 224 1153 225 -102 -20 hstemhm
          37 1034 hintmask 10110000
          37 70 rmoveto
          -59 75 118 -36 147 hhcurveto
          308 177 124 227 76 -26 73 -43 51 hvcurveto
          123 69 45 94 132 vvcurveto
          133 -81 104 -163 75 vhcurveto
          hintmask 11010000
          -115 57 -34 24 -1 64 rrcurveto
          39 31 35 80 43 45 -7 -15 45 vhcurveto
          46 -14 53 -26 61 -39 rrcurveto
          hintmask 10110000
          100 224 rlineto
          hintmask 11010000
          68 -117 -120 34 -123 hhcurveto
          -297 -158 -115 -213 -68 29 -73 51 -51 hvcurveto
          -115 -71 -63 -98 -112 vvcurveto
          -129 79 -106 173 -95 vhcurveto
          97 -53 38 -39 -51 vvcurveto
          -63 -58 -41 -92 -129 -116 51 69 -113 vhcurveto
          487 621 rmoveto
          108 -45 46 -53 -72 vvcurveto
          -51 -25 -42 -49 -34 vhcurveto
          -117 65 -45 52 57 vvcurveto
          45 33 53 49 25 vhcurveto
          endchar
        </CharString>
        <CharString name="semicolon">
          -584 1147 -20 hstem
          -117 735 -19 callsubr
          225 -677 8 callsubr
          -41 -115 -55 -160 -50 -129 -43 -98 rlinecurve
          289 25 callgsubr
        </CharString>
        <CharString name="seven">
          -23 21 -21 1135 327 hstem
          35 1243 vstem
          752 1135 rmoveto
          -717 -1135 rlineto
          448 hlineto
          744 1231 51 231 rlineto
          -1030 hlineto
          -70 -327 rlineto
          endchar
        </CharString>
        <CharString name="shindageshhb">
          12 callgsubr
          76 118 802 -20 hstem
          57 1625 vstem
          1682 1295 -100 callgsubr
          -624 -211 rmoveto
          -40 -29 -23 -36 -8 hvcurveto
          -37 -8 18 -22 41 hhcurveto
          40 31 23 36 8 hvcurveto
          35 7 -20 24 -40 hhcurveto
          endchar
        </CharString>
        <CharString name="shindageshshindothb">
          12 callgsubr
          76 118 802 -20 114 43 callgsubr
          1362.3500061 -57 callsubr
          1477 -83 callsubr
          205 -101 callgsubr
          -624 -211 rmoveto
          -40 -29 -23 -36 -8 hvcurveto
          -37 -8 18 -22 41 hhcurveto
          40 31 23 36 8 hvcurveto
          35 7 -20 24 -40 hhcurveto
          endchar
        </CharString>
        <CharString name="shindageshsindothb">
          12 callgsubr
          76 118 802 -91 callgsubr
          -624 -211 rmoveto
          -40 -29 -23 -36 -8 hvcurveto
          -37 -8 18 -22 41 hhcurveto
          40 31 23 36 8 hvcurveto
          35 7 -20 24 -40 hhcurveto
          endchar
        </CharString>
        <CharString name="six">
          -23 -4 callsubr
          78 1126 vstem
          463 807 rmoveto
          31 100 36 75 39 49 40 50 51 36 61 23 rrcurveto
          23 61 79 11 97 hhcurveto
          59 61 -8 -17 63 hvcurveto
          63 303 rlineto
          21 -87 -78 10 -68 hhcurveto
          -237 -189 -61 -122 -143 hvcurveto
          -142 -122 -99 -192 -57 -261 rrcurveto
          -17 -99 -9 -85 -70 vvcurveto
          -324 165 -167 300 vhcurveto
          338 -6 230 250 -5 351 rrcurveto
          261 -115 141 -213 -134 -102 -57 -113 -71 vhcurveto
          90 -520 rmoveto
          -60 -38 45 88 72 15 60 30 49 hvcurveto
          49 30 38 24 45 hhcurveto
          61 31 -43 -86 -70 -14 -61 -29 -51 hvcurveto
          -51 -29 -36 -25 -44 hhcurveto
          endchar
        </CharString>
        <CharString name="slash">
          -255 -4 callsubr
          -90 1182 vstem
          254 -20 rmoveto
          838 1503 rlineto
          -344 hlineto
          -838 -1503 rlineto
          endchar
        </CharString>
        <CharString name="space">
          -679 endchar
        </CharString>
        <CharString name="sterling">
          -23 0 330 321 279 553 -20 hstem
          -18 -23 callsubr
          vstem
          354 930 rmoveto
          -188 hlineto
          -57 -279 rlineto
          188 hlineto
          -21 -96 -11 -55 -14 -41 -17 -28 rlinecurve
          -16 -27 -23 -23 -30 -19 -29 -19 -40 -16 -51 -14 -63 -313 rcurveline
          1019 hlineto
          72 330 rlineto
          -604 hlineto
          107 45 75 83 21 99 20 94 rcurveline
          252 hlineto
          57 279 rlineto
          -251 hlineto
          24 114 rlineto
          91 19 26 26 47 hhcurveto
          68 57 -22 -41 88 hvcurveto
          144 299 rlineto
          64 -144 -110 22 -119 hhcurveto
          -195 -114 -56 -125 -79 hvcurveto
          -39 -63 -29 -81 -17 -99 rrcurveto
          endchar
        </CharString>
        <CharString name="t">
          -275 1 -21 862 291 hstem
          63 893 vstem
          604 842 rmoveto
          50 callgsubr
          63 291 rlineto
          -288 hlineto
          49 227 rlineto
          -258 hlineto
          -137 -240 -218 -88 -41 -190 rlineto
          154 hlineto
          -84 -402 rlineto
          -16 -75 -8 -62 -51 vvcurveto
          -193 104 -79 197 136 113 22 45 91 vhcurveto
          291 vlineto
          -31 -78 -61 -16 -44 hhcurveto
          -42 -21 21 42 19 5 35 11 51 hvcurveto
          endchar
        </CharString>
        <CharString name="tavdageshhb">
          226 2 -21 40 -21 577 173 264 34 callgsubr
          687.350006104 -81 callgsubr
          hintmask 01101100
          -15 callgsubr
          hintmask 10110100
          -32 callgsubr
          hintmask 01101100
          -21 callgsubr
          542 -527 -106 callgsubr
        </CharString>
        <CharString name="tetdageshhb">
          45 callgsubr
          606 173 535 -20 40 -20 hstemhm
          601.350006104 -81 callgsubr
          hintmask 01101100
          10 callsubr
          hintmask 10110100
          -54 callgsubr
          hintmask 01101100
          10 callgsubr
          -77 -542 -106 callgsubr
        </CharString>
        <CharString name="three">
          -23 -20 311 -290 -21 624 291 588 -20 hstemhm
          14 1112 hintmask 01111000
          340 1087 rmoveto
          56 102 90 28 78 hhcurveto
          84 51 -41 -61 -108 -115 -66 -196 hvcurveto
          -78 hlineto
          -53 -291 rlineto
          84 hlineto
          213 -4 61 -22 5 -107 rrcurveto
          hintmask 10111000
          -116 -91 -64 -184 -140 -126 33 67 -111 vhcurveto
          -332 vlineto
          -51 88 142 -28 155 hhcurveto
          203 160 39 78 119 hvcurveto
          119 78 59 111 144 vvcurveto
          84 -24 71 -49 57 vhcurveto
          -49 58 -67 37 -86 17 rrcurveto
          8 vlineto
          217 44 125 134 197 vvcurveto
          107 -40 84 -81 62 vhcurveto
          62 -80 -107 31 -134 hhcurveto
          -94 -86 -11 -23 -79 hvcurveto
          -78 -22 -81 -38 -84 -54 rrcurveto
          endchar
        </CharString>
        <CharString name="tilde">
          -76 1239 35 callsubr
          301 905 hintmask 01011000
          1016 -44 callsubr
          hintmask 10101000
          -90 callsubr
          hintmask 10011000
          -42 callgsubr
          endchar
        </CharString>
        <CharString name="trademark">
          366 1286 176 hstem
          272 197 242 192 463 195 vstem
          272 741 rmoveto
          197 545 170 176 -537 -176 170 hlineto
          633 -35 rmoveto
          144 -510 rlineto
          163 hlineto
          152 510 rlineto
          8 hlineto
          -4 -24 -2 -37 -49 vvcurveto
          -400 195 721 -277 vlineto
          -149 -479 -138 479 rlineto
          -286 -721 192 400 hlineto
          31 -2 36 -4 43 vhcurveto
          endchar
        </CharString>
        <CharString name="tsadidageshhb">
          96 9 callsubr
          143 173 680 -20 hstem
          142.350006104 193.869995117 -72 callsubr
          -1036 -419 -106 callgsubr
        </CharString>
        <CharString name="two">
          -23 0 326 1157 -20 hstem
          -57 1173 vstem
          -57 hmoveto
          1005 hlineto
          68 326 rlineto
          -490 12 hlineto
          205 176 141 121 99 105 58 89 rlinecurve
          58 89 29 95 101 vvcurveto
          113 -37 90 -75 66 vhcurveto
          67 -75 -98 33 -122 hhcurveto
          -205 -180 -74 -147 -156 hvcurveto
          186 -258 rlineto
          98 107 94 49 80 hhcurveto
          53 39 -33 -65 -93 -83 -121 -165 -147 hvcurveto
          -483 -436 rlineto
          endchar
        </CharString>
        <CharString name="u">
          -7 callgsubr
          48 callgsubr
          hintmask 01110000
          635 -51 callsubr
          -57 callgsubr
          hintmask 10110000
          -69 callsubr
          hintmask 01110000
          -94 callsubr
        </CharString>
        <CharString name="uacute">
          32 callsubr
          23 305 -20 hstemhm
          96 1209 hintmask 01111100
          584 -93 callgsubr
          51 -131 -57 callgsubr
          hintmask 10111100
          -69 callsubr
          hintmask 01111100
          -94 callsubr
        </CharString>
        <CharString name="ucircumflex">
          63 1 -21 41 13 callsubr
          96 1155 hintmask 01101010
          1221 -86 callsubr
          hintmask 01110110
          -77 callgsubr
          hintmask 10101010
          -55 callgsubr
          -320 -108 -57 callgsubr
          -69 callsubr
          hintmask 01101010
          -94 callsubr
        </CharString>
        <CharString name="udieresis">
          -7 callgsubr
          144 314 0 -20 48 callgsubr
          hintmask 01101100
          371 21 callsubr
          hintmask 01110100
          -95 callsubr
          vhcurveto
          hintmask 01101100
          -53 callsubr
          hintmask 01110100
          -94 callgsubr
          vhcurveto
          hintmask 01101100
          -69 callgsubr
          -223 -251 -57 callgsubr
          hintmask 10101100
          -69 callsubr
          hintmask 01101100
          -94 callsubr
        </CharString>
        <CharString name="ugrave">
          32 callsubr
          328 48 callgsubr
          hintmask 01111000
          902 -92 callgsubr
          -31 -108 -57 callgsubr
          hintmask 10111000
          -69 callsubr
          hintmask 01111000
          -94 callsubr
        </CharString>
        <CharString name="underscore">
          -289 -379 246 hstem
          -184 987 vstem
          -184 -379 rmoveto
          929 hlineto
          58 246 rlineto
          -930 hlineto
          endchar
        </CharString>
        <CharString name="uni00A0">
          -679 endchar
        </CharString>
        <CharString name="uni05B0">
          -515 -8 callsubr
          hstemhm
          508.720001221 -27 callsubr
          hintmask 01101000
          675 -101 rmoveto
          -47 callgsubr
          hintmask 10110000
          -51 -241 rmoveto
          -72 callgsubr
        </CharString>
        <CharString name="uni05B1">
          -530 173 68 173 hstemhm
          308.38999939 -6 callgsubr
          -91.5899963379 190.919998169 4.71000671387 193.880004883 20.5399932861 -27 callsubr
          hintmask 11101010
          422 -116 rmoveto
          -57 -43 -80 callsubr
          -54 -12 29 -32 57 hhcurveto
          58 -31 callgsubr
          -58 hhcurveto
          297 hmoveto
          45 callsubr
          27 16 callsubr
          266 hmoveto
          -47 callgsubr
          hintmask 11010100
          -462 -241 rmoveto
          -58 -42 -11 callgsubr
          28 -70 callsubr
          411 hmoveto
          -72 callgsubr
        </CharString>
        <CharString name="uni05B2">
          12 callsubr
          774.669998169 190.919998169 -139.239990234 190.910003662 hintmask 00000000
          hintmask 01100100
          940 -16 callgsubr
          hintmask 10011000
          -208 18 callsubr
          524 -98 rmoveto
          -58 -42 -11 callgsubr
          28 -70 callsubr
          endchar
        </CharString>
        <CharString name="uni05B3">
          12 callsubr
          777.720001221 -27 callsubr
          hintmask 01100100
          944 -116 rmoveto
          -47 callgsubr
          hintmask 10011000
          -212 18 callsubr
          128 -5 callgsubr
          289 -98 rmoveto
          -72 callgsubr
        </CharString>
        <CharString name="uni05B4">
          -284 13 callgsubr
          -111 -106 callgsubr
        </CharString>
        <CharString name="uni05B5">
          -265 43 callgsubr
          384.38999939 190.869995117 104.13999939 194.779998779 vstem
          498 -92 15 callgsubr
          29 -39 callsubr
          11 16 callgsubr
          297 hmoveto
          -60 -85 callsubr
          -54 -12 29 -32 60 hhcurveto
          57 45 -76 callsubr
          52 11 -31 35 -57 hhcurveto
          endchar
        </CharString>
        <CharString name="uni05B6">
          -530 -8 callsubr
          hstemhm
          410.350006104 190.910003662 -91.5400085449 -6 callgsubr
          3.76000976562 194.830001831 hintmask 01110100
          524 -16 callgsubr
          297 hmoveto
          -60 -85 callsubr
          -54 -12 28 16 callsubr
          hintmask 10101000
          -196 -241 rmoveto
          -72 callgsubr
        </CharString>
        <CharString name="uni05B7">
          -234 116 hstem
          420 417 vstem
          813 -234 19 callgsubr
        </CharString>
        <CharString name="uni05B8">
          -255 117 hstem
          447 407 vstem
          829 -255 -18 callsubr
        </CharString>
        <CharString name="uni05B9">
          -84 callgsubr
        </CharString>
        <CharString name="uni05BA">
          -84 callgsubr
        </CharString>
        <CharString name="uni05BB">
          -651 173 2 173 3 173 hstemhm
          428.669998169 190.630004883 -46.870010376 191.830001831 -43.9599914551 193.919998169 hintmask 10110100
          543 -127 rmoveto
          -58 -42 -11 callgsubr
          28 1 callgsubr
          33 53 11 hvcurveto
          53 11 -28 39 callgsubr
          hintmask 01001000
          144 -176 rmoveto
          -58 -43 -80 callsubr
          -54 -12 30 -39 callsubr
          11 16 callgsubr
          hintmask 10110100
          148 -175 rmoveto
          45 callsubr
          27 -32 60 hhcurveto
          58 45 -76 callsubr
          -7 callsubr
        </CharString>
        <CharString name="uni05BC">
          570 13 callgsubr
          743 -106 callgsubr
        </CharString>
        <CharString name="uni05BD">
          45 -488 -21 hstem
          539 177 vstem
          642 -509 rmoveto
          74 352 rlineto
          -103 hlineto
          -74 -352 rlineto
          endchar
        </CharString>
        <CharString name="uni05BE">
          -560 982 313 hstem
          10 631 vstem
          575 982 rmoveto
          66 313 rlineto
          -565 hlineto
          -66 -313 rlineto
          endchar
        </CharString>
        <CharString name="uni05C1">
          1410 173 -14 callsubr
          479.350006104 -81 callgsubr
          hintmask 01100000
          594 -82 callsubr
        </CharString>
        <CharString name="uni05C2">
          -84 callgsubr
        </CharString>
        <CharString name="uni05C7">
          -210 100 hstem
          125 431 vstem
          535 -210 rmoveto
          21 100 rlineto
          -410 hlineto
          -21 -100 rlineto
          156 hlineto
          -49 -234 rlineto
          93 hlineto
          49 234 rlineto
          endchar
        </CharString>
        <CharString name="uni05D0">
          167 21 -96 callgsubr
          endchar
        </CharString>
        <CharString name="uni05D1">
          -15 9 callsubr
          716 300 hstemhm
          -58 1150 47 callgsubr
          -68 callgsubr
          endchar
        </CharString>
        <CharString name="uni05D2">
          -227 -20 20 21 -21 1315 -20 hstemhm
          -88 1012.55999756 hintmask 10110000
          -55 callsubr
          hintmask 01110000
          -18 callgsubr
          endchar
        </CharString>
        <CharString name="uni05D3">
          -76 21 20 callgsubr
          105 1149 vstem
          1254 -24 callsubr
          -1085 -37 callsubr
          621 hlineto
          -53 -38 -62 -67 -23 -105 -167 -786 rcurveline
          26 callsubr
          166 779 31 145 51 48 138 49 rlinecurve
          endchar
        </CharString>
        <CharString name="uni05D4">
          138 21 -21 1015 300 hstemhm
          -4 1282.58999634 47 callgsubr
          -50 callsubr
          116 -1277 rmoveto
          44 callgsubr
          -161 -755 rlineto
          endchar
        </CharString>
        <CharString name="uni05D5">
          -553 21 -21 1 callsubr
          -3 664 vstem
          385 hmoveto
          14 callgsubr
          -276 -1295 rlineto
          endchar
        </CharString>
        <CharString name="uni05D6">
          -480 21 20 callgsubr
          -2 848 vstem
          846 -24 callsubr
          -616 -37 callsubr
          257 hlineto
          -100 -71 -159 -144 -71 -336 -95 -445 rcurveline
          26 callsubr
          95 445 35 163 31 146 122 151 rlinecurve
          58 71 59 40 0 vvcurveto
          endchar
        </CharString>
        <CharString name="uni05D7">
          138 21 -21 1015 34 callgsubr
          -5 1285.27000427 hintmask 10110000
          -5 hmoveto
          26 callsubr
          hintmask 11010000
          215 1012 rlineto
          2 40 38 1 34 -12 callgsubr
          49 callsubr
          175 822 rlineto
          315 67 -32 178 5 callsubr
          endchar
        </CharString>
        <CharString name="uni05D8">
          45 callgsubr
          1314 -20 40 -20 hstemhm
          111 1196.32000732 hintmask 01011000
          10 callsubr
          hintmask 10101000
          -54 callgsubr
          hintmask 01011000
          10 callgsubr
          endchar
        </CharString>
        <CharString name="uni05D9">
          -576 1 callsubr
          76 574 vstem
          522 691 rmoveto
          22 callsubr
          173 hlineto
          endchar
        </CharString>
        <CharString name="uni05DA">
          -103 9 callgsubr
          1505 302 hstem
          106 918.119995117 vstem
          106 -21 callsubr
          -1 -128 -154 -33 vhcurveto
          -260 -1223 -3 callsubr
          259 1221 rlineto
          295 63 -57 11 callsubr
          -173 -16 0 hvcurveto
          endchar
        </CharString>
        <CharString name="uni05DB">
          -107 -20 312 721 302 hstem
          -70 1129.02000427 -79 callgsubr
          endchar
        </CharString>
        <CharString name="uni05DC">
          -80 21 20 callgsubr
          129 1103 vstem
          580 -24 callsubr
          -33 callsubr
          50 237 rlineto
          endchar
        </CharString>
        <CharString name="uni05DD">
          138 9 callsubr
          715 34 callgsubr
          -5 1288.08999634 hintmask 10110000
          -5 hmoveto
          1084 hlineto
          188 883 rlineto
          311 66 -129 120 -392 hhcurveto
          -300 -245 -37 0 hvcurveto
          487 -978 rmoveto
          -307 hlineto
          hintmask 11010000
          151 711 rlineto
          0 62 4 50 118 73 -24 -95 -20 vhcurveto
          endchar
        </CharString>
        <CharString name="uni05DE">
          214 9 callsubr
          864 132 20 -20 hstemhm
          -54 1395.08000183 hintmask 00000000
          hintmask 11010000
          -78 callgsubr
          hintmask 10110000
          41 callgsubr
          hintmask 11010000
          44 callsubr
          endchar
        </CharString>
        <CharString name="uni05DF">
          -592 1 callsubr
          -138 702.75 vstem
          171 -24 callsubr
          0 26 -194 -60 -280 vhcurveto
          -275 -1294 rlineto
          49 callsubr
          275 1294 rlineto
          58 274 -24 200 0 vvcurveto
          endchar
        </CharString>
        <CharString name="uni05E0">
          -306 9 callsubr
          1016 -20 hstem
          -68 908.529998779 -68 callsubr
          endchar
        </CharString>
        <CharString name="uni05E1">
          97 -19 308 -287 -21 1033 301 -14 callsubr
          60.4400024414 1186.41000366 hintmask 01011000
          -59 callsubr
          hintmask 10101000
          -48 callsubr
          endchar
        </CharString>
        <CharString name="uni05E2">
          103 1 callsubr
          -95 1468 -1 callsubr
          -177 -588 -43 -142 -46 -92 -68 -64 rlinecurve
          4 324 -38 562 rlineto
          -2 callsubr
          59 -1010 -321 -47 -65 -308 462 70 650 99 133 455 51 171 rlinecurve
          endchar
        </CharString>
        <CharString name="uni05E3">
          98 9 callgsubr
          1498 35 callgsubr
          77.6100006104 1135.00999451 hintmask 10110000
          2 callsubr
          hintmask 11010000
          -67 callsubr
          endchar
        </CharString>
        <CharString name="uni05E4">
          97 -20 300 726 35 callgsubr
          62 1187.61999512 hintmask 10110000
          2 callgsubr
          hintmask 11010000
          -79 callsubr
          endchar
        </CharString>
        <CharString name="uni05E5">
          2 9 callgsubr
          910 274 603 -20 hstem
          52 1222 vstem
          1274 1295 21 callgsubr
          -97 -456 rlineto
          -105 -22 -38 -42 -67 hhcurveto
          -9 hlineto
          -89 603 rlineto
          -418 hlineto
          133 -713 -228 -1074 rlineto
          26 callsubr
          194 910 rlineto
          31 hlineto
          344 123 211 195 42 hvcurveto
          endchar
        </CharString>
        <CharString name="uni05E6">
          96 9 callsubr
          996 -20 hstem
          -63 1436 -72 callsubr
          endchar
        </CharString>
        <CharString name="uni05E7">
          177 9 callgsubr
          513 20 callgsubr
          -105 1593 vstem
          1440 1071 rmoveto
          48 224 rlineto
          -1213 -37 callsubr
          787 hlineto
          -278 -473 -85 -145 -83 -224 -19 -93 rlinecurve
          -13 -61 rlineto
          385 hlineto
          13 61 23 111 67 166 104 177 rlinecurve
          -829 -1007 rmoveto
          270 1272 8 callgsubr
          -270 -1272 rlineto
          endchar
        </CharString>
        <CharString name="uni05E8">
          -85 21 -21 1015 300 hstemhm
          122 932.740005493 47 callgsubr
          -56 callgsubr
          endchar
        </CharString>
        <CharString name="uni05E9">
          12 callgsubr
          996 -71 callgsubr
          0 78 602 0 vhcurveto
          -83 callgsubr
          endchar
        </CharString>
        <CharString name="uni05EA">
          226 2 -21 40 -21 1014 34 callgsubr
          -83 1454.53999329 hintmask 01011000
          -15 callgsubr
          hintmask 10101000
          -32 callgsubr
          hintmask 01011000
          -21 callgsubr
          endchar
        </CharString>
        <CharString name="uni20AA">
          871 9 callsubr
          697 26 callgsubr
          -3 2103 vstem
          273 -24 callsubr
          -276 -1295 rlineto
          386 hlineto
          212 996 rlineto
          295 hlineto
          216 90 -33 -255 -54 hvcurveto
          -42 -199 rlineto
          335 hlineto
          46 217 rlineto
          257 54 21 312 -642 hhcurveto
          1186 hmoveto
          -376 hlineto
          -103 -482 rlineto
          -336 -71 -143 -178 -368 hhcurveto
          -115 hlineto
          113 534 rlineto
          -346 hlineto
          -177 -833 rlineto
          461 hlineto
          641 284 357 438 93 hvcurveto
          endchar
        </CharString>
        <CharString name="uniFB01">
          3 callsubr
          1774 vstem
          1149 -16 callsubr
          -500 -540 -95 callgsubr
          419 117 rmoveto
          -30 callgsubr
        </CharString>
        <CharString name="uniFB02">
          3 callsubr
          1788 vstem
          649 842 -95 callgsubr
          748 1673 rmoveto
          -329 -1556 rlineto
          41 callsubr
          endchar
        </CharString>
        <CharString name="uniFB2A">
          12 callgsubr
          996 -20 114 43 callgsubr
          1546.3500061 -57 callsubr
          1661 -83 callsubr
          21 -101 callgsubr
          endchar
        </CharString>
        <CharString name="uniFB2B">
          12 callgsubr
          996 -91 callgsubr
          endchar
        </CharString>
        <CharString name="uniFB35">
          -553 -3 callgsubr
          535 -20 hstem
          -90.6499938965 -57 callsubr
          -3 hmoveto
          26 callsubr
          14 callgsubr
          -249 -535 -106 callgsubr
        </CharString>
        <CharString name="uniFB4B">
          -553 21 -21 -22 callsubr
          -20 114 43 callgsubr
          302.350006104 -57 callsubr
          417 -83 callsubr
          -420 -1562 rmoveto
          26 callsubr
          14 callgsubr
          endchar
        </CharString>
        <CharString name="v">
          -97 29 callsubr
          88 1145 vstem
          88 -51 callsubr
          rmoveto
          145 -1133 rlineto
          26 callsubr
          612 -17 callgsubr
          -414 hlineto
          -265 -568 -13 -27 -12 -30 -11 -33 rlinecurve
          -11 -33 -6 -21 -1 -9 rrcurveto
          -8 hlineto
          5 30 3 39 49 vvcurveto
          -27 603 rlineto
          endchar
        </CharString>
        <CharString name="w">
          475 21 -21 877 256 -14 callsubr
          102 1698 -907 252 hintmask 10110000
          840 hmoveto
          422 hlineto
          538 -17 callgsubr
          -385 hlineto
          hintmask 10101000
          -134 -313 -80 -194 -27 -77 -49 -140 rcurveline
          -15 -47 rlineto
          -8 hlineto
          16 111 11 98 6 86 20 476 rcurveline
          -428 hlineto
          -172 -476 -28 -79 -29 -98 -31 -118 rlinecurve
          -8 hlineto
          5 51 3 87 121 vvcurveto
          512 -365 vlineto
          66 -1133 rlineto
          407 hlineto
          189 487 rlineto
          hintmask 11001000
          41 105 40 130 40 155 rrcurveto
          8 hlineto
          -8 -55 -7 -73 -7 -91 -6 -91 -4 -69 -1 -49 rrcurveto
          endchar
        </CharString>
        <CharString name="x">
          -52 29 callsubr
          -119 1409 vstem
          334 hmoveto
          211 328 80 -328 rlineto
          428 hlineto
          -228 557 465 576 rlineto
          -459 hlineto
          -186 -314 -76 314 rlineto
          -422 hlineto
          207 -555 -473 -578 rlineto
          endchar
        </CharString>
        <CharString name="y">
          -97 30 callgsubr
          hstem
          -129 1358 vstem
          471 -51 callsubr
          rmoveto
          -75 callsubr
          -2 62 rlineto
          endchar
        </CharString>
        <CharString name="ydieresis">
          -97 30 callgsubr
          144 0 callsubr
          -129 1358 hintmask 11011000
          259 -88 callgsubr
          -232 -813 rmoveto
          -43 562 rlineto
          -75 callsubr
          endchar
        </CharString>
        <CharString name="yen">
          -23 21 -21 190 205 129 205 733 -20 hstem
          76 1249 vstem
          932 31 callsubr
          -293 -487 -72 487 rlineto
          -385 hlineto
          187 -733 rlineto
          -179 hlineto
          -45 -205 rlineto
          226 hlineto
          -25 -129 rlineto
          -227 hlineto
          -43 -205 rlineto
          227 hlineto
          -41 -190 rlineto
          379 hlineto
          41 190 rlineto
          223 hlineto
          43 205 rlineto
          -223 hlineto
          27 129 rlineto
          223 hlineto
          45 205 rlineto
          -184 hlineto
          489 733 rlineto
          endchar
        </CharString>
        <CharString name="yoddageshhb">
          -576 839 173 283 -20 hstem
          -51.6499938965 -57 callsubr
          249 419 rmoveto
          273 272 22 callsubr
          -13 593 -106 callgsubr
        </CharString>
        <CharString name="z">
          -218 9 callsubr
          535 26 callgsubr
          -41 1075 vstem
          -41 hmoveto
          844 hlineto
          65 299 rlineto
          -383 hlineto
          496 592 53 242 rlineto
          -811 hlineto
          -67 -299 rlineto
          348 hlineto
          -502 -613 rlineto
          endchar
        </CharString>
        <CharString name="zayindageshhb">
          -480 -1 callgsubr
          -86.6499938965 -57 callsubr
          846 -24 callsubr
          -616 -37 callsubr
          257 hlineto
          -100 -71 -159 -144 -71 -336 -95 -445 rcurveline
          26 callsubr
          95 445 35 163 31 146 122 151 rlinecurve
          58 71 59 40 0 vvcurveto
          -758 -256 -106 callgsubr
        </CharString>
        <CharString name="zero">
          -23 -33 callgsubr
          hstem
          63 1094 vstem
          1157 983 rmoveto
          304 -156 198 -270 -264 -206 -168 -319 -113 vhcurveto
          -57 -159 -28 -177 -197 vvcurveto
          -311 146 -174 280 264 206 165 308 113 vhcurveto
          57 155 28 176 199 vvcurveto
          -471 186 rmoveto
          60 22 -65 -113 -110 -13 -112 -25 -114 hvcurveto
          -25 -114 -30 -89 -36 -63 rrcurveto
          -63 -35 -37 -31 -39 hhcurveto
          -60 -15 50 112 99 11 106 23 114 hvcurveto
          23 114 29 94 37 74 rrcurveto
          74 37 36 37 37 hhcurveto
          endchar
        </CharString>
      <CharString index="0">
        rmoveto
        -309 -244 -159 -296 -137 hvcurveto
        -69 -148 -34 -162 -177 vvcurveto
        -177 49 -138 97 -99 vhcurveto
        -99 98 139 -50 179 hhcurveto
        308 240 162 293 132 hvcurveto
        67 147 33 163 177 vvcurveto
        177 -48 138 -97 99 vhcurveto
        99 -96 -135 50 -173 hhcurveto
        154 -567 -53 callgsubr
        -42 -75 -55 -55 rrcurveto
        -55 -54 -59 -28 -63 hhcurveto
        -133 -67 81 161 103 16 100 33 98 hvcurveto
        33 98 45 77 55 56 rrcurveto
        56 55 61 28 66 hhcurveto
        121 66 -91 -152 hvcurveto
        endchar
      </CharString>
      <CharString index="1">
        -107 callsubr
        endchar
      </CharString>
      <CharString index="2">
        -100 callsubr
        -109 -101 callsubr
      </CharString>
      <CharString index="3">
        -89 callsubr
        58 44 -76 callsubr
        return
      </CharString>
      <CharString index="4">
        rmoveto
        -377 hlineto
        -174 -582 rlineto
        -307 -92 -152 -107 -153 hhcurveto
        -260 hlineto
        13 118 rlineto
        16 hlineto
        106 297 24 393 115 hvcurveto
        137 461 rlineto
        -374 hlineto
        -139 -466 rlineto
        -42 -141 -80 5 0 vvcurveto
        return
      </CharString>
      <CharString index="5">
        1722 rmoveto
        -95 callsubr
        -82 callgsubr
        vhcurveto
        487 hmoveto
        -94 callgsubr
        -82 callgsubr
        vhcurveto
        return
      </CharString>
      <CharString index="6">
        -267 -100 callgsubr
        return
      </CharString>
      <CharString index="7">
        -103 callgsubr
        78 602 rlineto
        -83 callgsubr
        return
      </CharString>
      <CharString index="8">
        rmoveto
        23 vlineto
        -33 43 -34 52 -35 60 -35 61 -26 50 -17 39 rrcurveto
        -447 hlineto
        -32 -35 -46 -47 -61 -61 rrcurveto
        return
      </CharString>
      <CharString index="9">
        hhcurveto
        -180 -154 -128 -248 -97 hvcurveto
        -49 -124 -24 -122 -119 vvcurveto
        -52 callsubr
        109 84 39 104 75 vhcurveto
        return
      </CharString>
      <CharString index="10">
        -46 24 -32 14 -17 4 rrcurveto
        5 -17 -19 2 -23 hhcurveto
        -171 -99 -113 -229 -43 hvcurveto
        188 hlineto
        61 9 47 39 41 hhcurveto
        36 42 -15 -30 49 hvcurveto
        return
      </CharString>
      <CharString index="11">
        -21 1 callsubr
        -22 1418 -104 callsubr
        return
      </CharString>
      <CharString index="12">
        rmoveto
        209 hlineto
        66 291 rlineto
        -211 hlineto
        16 71 rlineto
        47 11 34 25 47 hhcurveto
        43 43 -10 -21 43 hvcurveto
        99 264 rlineto
        35 -71 -105 23 -107 hhcurveto
        -229 -136 -109 -256 -57 hvcurveto
        -16 -74 -189 -96 -43 -190 rlineto
        166 hlineto
        -190 -897 rlineto
        -87 -19 -46 -77 callsubr
        return
      </CharString>
      <CharString index="13">
        -87 53 -40 117 133 66 60 129 83 -56 42 -112 return
      </CharString>
      <CharString index="14">
        -23 callsubr
        -103 callsubr
        return
      </CharString>
      <CharString index="15">
        -23 callsubr
        -102 callsubr
        return
      </CharString>
      <CharString index="16">
        -20 114 43 callgsubr
        206.350006104 -57 callsubr
        321 -83 callsubr
        1361 -101 callgsubr
        return
      </CharString>
      <CharString index="17">
        52 11 -30 35 -58 hhcurveto
        return
      </CharString>
      <CharString index="18">
        -38 callgsubr
        -91 callsubr
        endchar
      </CharString>
      <CharString index="19">
        21 callsubr
        hintmask 11101000
        -95 callsubr
        5 callgsubr
        487 hmoveto
        hintmask 11101000
        -94 callgsubr
        5 callgsubr
        return
      </CharString>
      <CharString index="20">
        448 hlineto
        10 -274 rlineto
        381 hlineto
        -123 -23 callgsubr
        -503 hlineto
        -744 -65 callsubr
        return
      </CharString>
      <CharString index="21">
        1579 -99 callgsubr
        return
      </CharString>
      <CharString index="22">
        -293 hlineto
        217 475 25 53 20 56 16 57 rlinecurve
        -3 -37 -1 -44 -50 vvcurveto
        return
      </CharString>
      <CharString index="23">
        1410 173 -14 callsubr
        532.350006104 -81 callgsubr
        hintmask 01100000
        647 -82 callsubr
      </CharString>
      <CharString index="24">
        -377 hlineto
        -167 -1295 rlineto
        568 hlineto
        354 346 118 586 178 hvcurveto
        return
      </CharString>
      <CharString index="25">
        -134 -67 -62 -125 return
      </CharString>
      <CharString index="26">
        193.869995117 return
      </CharString>
      <CharString index="27">
        97 -19 48 -33 -49 vvcurveto
        -33 -23 -16 -45 -16 -24 3 6 -32 vhcurveto
        -33 6 -26 6 -20 6 rrcurveto
        -205 vlineto
        -19 51 64 -10 77 hhcurveto
        201 115 95 161 105 -59 65 -119 25 hvcurveto
        return
      </CharString>
      <CharString index="28">
        vstem
        140 -21 callsubr
        -2 -128 -154 -32 vhcurveto
        -36 -166 rlineto
        -153 -32 -67 -120 -155 hhcurveto
        -128 -146 7 11 -93 hvcurveto
        -64 -303 rlineto
        -21 108 116 -6 178 hhcurveto
        458 151 291 294 62 hvcurveto
        35 164 rlineto
        295 63 -58 11 callsubr
        -174 -16 0 hvcurveto
        return
      </CharString>
      <CharString index="29">
        597 1163 rmoveto
        0 5 41 -8 44 vhcurveto
        -4 14 -4 20 -5 13 rrcurveto
        -340 hlineto
        18 -124 -2 -97 -27 -123 -13 -61 -12 -41 -10 -31 -249 -818 rcurveline
        382 hlineto
        261 874 rlineto
        0 100 133 124 150 -16 -129 -149 -32 vhcurveto
        -91 -430 rlineto
        -231 -37 callsubr
        626 hlineto
        155 729 rlineto
        return
      </CharString>
      <CharString index="30">
        -81 callsubr
        67 43 80 58 93 73 rrcurveto
        return
      </CharString>
      <CharString index="31">
        240 1133 -63 callgsubr
        return
      </CharString>
      <CharString index="32">
        -40 callsubr
        -54 callsubr
        -114 212 172 142 109 184 75 vhcurveto
        return
      </CharString>
      <CharString index="33">
        -309 -65 callsubr
        return
      </CharString>
      <CharString index="34">
        1919 -71 callsubr
        hintmask 11011000
        -97 callgsubr
        hintmask 11101000
        -24 callgsubr
        -42 callgsubr
        return
      </CharString>
      <CharString index="35">
        -58 -43 -11 callgsubr
        29 -70 callsubr
        endchar
      </CharString>
      <CharString index="36">
        -20 hstem
        57 1625 vstem
        1682 1295 -103 callgsubr
        return
      </CharString>
      <CharString index="37">
        -52 callgsubr
        -55 49 99 hvcurveto
        16 return
      </CharString>
      <CharString index="38">
        -82 callgsubr
        hvcurveto
        return
      </CharString>
      <CharString index="39">
        153 992 rmoveto
        0 236 23 129 112 75 -47 -146 -31 vhcurveto
        -111 -523 rlineto
        -557 -37 callsubr
        1086 hlineto
        64 299 rlineto
        -141 hlineto
        115 540 rlineto
        297 63 -32 179 -478 hhcurveto
        -214 -145 -17 -9 -44 hvcurveto
        return
      </CharString>
      <CharString index="40">
        8 callsubr
        -89 -243 -34 -94 -33 -86 -33 -78 rlinecurve
        -35 callsubr
        489 22 8 callsubr
        -89 -243 -39 -107 -33 -86 -27 -65 rlinecurve
        50 callgsubr
        49 79 48 84 47 90 47 90 37 75 26 61 rrcurveto
        endchar
      </CharString>
      <CharString index="41">
        1 -21 41 -74 callsubr
        return
      </CharString>
      <CharString index="42">
        -54 -12 28 -32 return
      </CharString>
      <CharString index="43">
        -86 callsubr
        hintmask 11101100
        -77 callgsubr
        hintmask 11010100
        -55 callgsubr
        return
      </CharString>
      <CharString index="44">
        rlineto
        -310 hlineto
        -53 -140 rlineto
        -8 hlineto
        return
      </CharString>
      <CharString index="45">
        -86 callgsubr
        hintmask 11110100
        -81 callsubr
        hintmask 11101100
        -46 callgsubr
        return
      </CharString>
      <CharString index="46">
        317 rlineto
        -444 hlineto
        47 230 rlineto
        477 hlineto
        return
      </CharString>
      <CharString index="47">
        32 -66 callgsubr
        40 -20 return
      </CharString>
      <CharString index="48">
        hlineto
        -75 -135 rlineto
        hintmask 10111000
        -80 callgsubr
        12 21 return
      </CharString>
      <CharString index="49">
        6 callgsubr
        -64 callsubr
        73 26 30 37 33 hhcurveto
        return
      </CharString>
      <CharString index="50">
        21 callgsubr
        -127 -603 rlineto
        -17 -82 -8 -76 -71 vvcurveto
        return
      </CharString>
      <CharString index="51">
        122 993 rmoveto
        11 109 148 11 108 -12 callgsubr
        388 40 callsubr
        -27 196 -477 hhcurveto
        -160 -144 -11 -10 -99 hvcurveto
        return
      </CharString>
      <CharString index="52">
        73 -89 52 -58 31 -27 rrcurveto
        return
      </CharString>
      <CharString index="53">
        -268 -57 -85 -106 -119 hhcurveto
        -121 -27 127 247 53 hvcurveto
        134 630 rlineto
        43 callsubr
        -134 -630 rlineto
        -432 -92 191 -252 310 hhcurveto
        373 261 253 431 92 hvcurveto
        return
      </CharString>
      <CharString index="54">
        rmoveto
        -111 -16 -103 -31 -94 vhcurveto
        -31 -94 return
      </CharString>
      <CharString index="55">
        rmoveto
        -68 -129 -94 -30 -105 hhcurveto
        -109 return
      </CharString>
      <CharString index="56">
        -60 callsubr
        -20 return
      </CharString>
      <CharString index="57">
        -20 callgsubr
        65 10 64 19 64 hvcurveto
        19 65 26 52 31 39 rrcurveto
        39 31 32 20 33 hhcurveto
        53 27 -48 -96 -93 callsubr
      </CharString>
      <CharString index="58">
        -75 callgsubr
        37 92 19 101 109 vvcurveto
        return
      </CharString>
      <CharString index="59">
        hlineto
        -74 callgsubr
        return
      </CharString>
      <CharString index="60">
        -58 -43 -80 callsubr
        -54 -12 29 -58 callsubr
        return
      </CharString>
      <CharString index="61">
        67 43 80 58 93 73 -55 callgsubr
        return
      </CharString>
      <CharString index="62">
        21 -74 callsubr
        return
      </CharString>
      <CharString index="63">
        1362 1354 rmoveto
        87 -144 -160 44 -177 hhcurveto
        -300 -240 -152 -296 -136 hvcurveto
        -67 -148 -34 -163 -177 vvcurveto
        -181 47 -141 93 -99 vhcurveto
        return
      </CharString>
      <CharString index="64">
        -239 -1133 -3 callsubr
        return
      </CharString>
      <CharString index="65">
        173 103 113 229 45 hvcurveto
        return
      </CharString>
      <CharString index="66">
        -20 callsubr
        127 602 rlineto
        17 82 8 76 71 vvcurveto
        201 -111 121 -188 return
      </CharString>
      <CharString index="67">
        225 -20 327 -306 -21 1482 -20 return
      </CharString>
      <CharString index="68">
        322 rlineto
        -477 hlineto
        57 276 rlineto
        return
      </CharString>
      <CharString index="69">
        rmoveto
        -74 callgsubr
        return
      </CharString>
      <CharString index="70">
        53 -115 -122 27 -130 hhcurveto
        -117 -105 -31 -61 -93 hvcurveto
        -92 -61 -72 -85 -51 -109 rrcurveto
        -51 -109 -25 -121 -134 vvcurveto
        -147 37 -114 74 -81 vhcurveto
        return
      </CharString>
      <CharString index="71">
        12 158 -29 callgsubr
        116 553 rlineto
        201 41 68 92 76 -9 callgsubr
      </CharString>
      <CharString index="72">
        vstem
        432 238 8 callsubr
        -75 -210 -46 -126 -17 -43 -17 -43 -16 -41 -17 -39 rrcurveto
        288 hlineto
        108 171 85 159 63 149 rrcurveto
        return
      </CharString>
      <CharString index="73">
        173 21 -21 274 312 return
      </CharString>
      <CharString index="74">
        1 -21 1505 -20 return
      </CharString>
      <CharString index="75">
        -60 -279 rlineto
        0 74 -42 100 341 117 181 233 49 vhcurveto
        132 618 rlineto
        2 41 -6 -1 35 hhcurveto
        -25 callgsubr
        hvcurveto
        return
      </CharString>
      <CharString index="76">
        43 33 53 12 hvcurveto
        53 11 -29 34 return
      </CharString>
      <CharString index="77">
        -8 callgsubr
        43 callsubr
        endchar
      </CharString>
      <CharString index="78">
        rlineto
        -309 hlineto
        -43 callgsubr
        return
      </CharString>
      <CharString index="79">
        1462 -38 callgsubr
        return
      </CharString>
      <CharString index="80">
        -41 callgsubr
        -144 -95 -51 -127 -73 vhcurveto
        -8 hlineto
        return
      </CharString>
      <CharString index="81">
        342 -28 callgsubr
        return
      </CharString>
      <CharString index="82">
        112 74 -47 -146 -31 return
      </CharString>
      <CharString index="83">
        35 -19 74 -37 63 3 rrcurveto
        return
      </CharString>
      <CharString index="84">
        -60 callsubr
        rlineto
        return
      </CharString>
      <CharString index="85">
        38 callsubr
        -191 -893 rlineto
        return
      </CharString>
      <CharString index="86">
        -175 -821 rlineto
        49 callsubr
        178 838 rlineto
        297 64 -32 179 -477 hhcurveto
        -300 -342 -37 0 hvcurveto
        return
      </CharString>
      <CharString index="87">
        rmoveto
        -57 -29 48 95 return
      </CharString>
      <CharString index="88">
        -54 callsubr
        -115 212 172 141 109 184 75 vhcurveto
        return
      </CharString>
      <CharString index="89">
        22 -182 rlineto
        291 hlineto
        192 902 rlineto
        232 49 -13 181 -367 hhcurveto
        -125 -133 -32 0 hvcurveto
        return
      </CharString>
      <CharString index="90">
        -51 callsubr
        rlineto
        return
      </CharString>
      <CharString index="91">
        -116 15 callgsubr
        28 -58 callsubr
        return
      </CharString>
      <CharString index="92">
        196 979 rmoveto
        0 66 7 75 4 vhcurveto
        -127 -595 rlineto
        -77 -16 -27 -30 -56 hhcurveto
        -62 -72 14 0 hvcurveto
        return
      </CharString>
      <CharString index="93">
        32 1 -21 1173 -20 return
      </CharString>
      <CharString index="94">
        1001 rmoveto
        97 -68 55 -119 -145 -92 -84 -145 -100 64 -56 116 152 92 90 143 vhcurveto
        return
      </CharString>
      <CharString index="95">
        hhcurveto
        -25 callgsubr
        hvcurveto
        20 callsubr
        return
      </CharString>
      <CharString index="96">
        -33 -54 -12 hvcurveto
        -54 -11 return
      </CharString>
      <CharString index="97">
        -64 callsubr
        hintmask 0101100101100000
        73 26 30 37 33 hhcurveto
        return
      </CharString>
      <CharString index="98">
        hhcurveto
        41 34 -29 -57 -43 -6 -47 -12 -52 hvcurveto
        endchar
      </CharString>
      <CharString index="99">
        -20 callsubr
        241 -17 callgsubr
        return
      </CharString>
      <CharString index="100">
        63 -66 callgsubr
        return
      </CharString>
      <CharString index="101">
        191.869995117 return
      </CharString>
      <CharString index="102">
        hlineto
        -43 -202 rlineto
        111 hlineto
        43 202 rlineto
        return
      </CharString>
      <CharString index="103">
        91 -69 50 -121 -143 -83 -72 -137 vhcurveto
        return
      </CharString>
      <CharString index="104">
        21 -21 587 173 return
      </CharString>
      <CharString index="105">
        rmoveto
        -107 59 -65 99 96 59 64 108 111 -56 61 -99 -101 -57 -61 -111 vhcurveto
        return
      </CharString>
      <CharString index="106">
        -3 callgsubr
        236 26 callgsubr
        return
      </CharString>
      <CharString index="107">
        -484 -66 callsubr
        return
      </CharString>
      <CharString index="108">
        -32 58 hhcurveto
        57 43 return
      </CharString>
      <CharString index="109">
        570 408 rmoveto
        121 279 -78 17 -32 7 -83 30 25 117 rlinecurve
        return
      </CharString>
      <CharString index="110">
        vstem
        438 934 rmoveto
        158 528 rlineto
        -342 hlineto
        -72 -528 rlineto
        return
      </CharString>
      <CharString index="111">
        842 1161 22 callgsubr
        return
      </CharString>
      <CharString index="112">
        vhcurveto
        hintmask 11011000
        -69 callgsubr
        return
      </CharString>
      <CharString index="113">
        -86 -13 -80 -25 -74 hvcurveto
        return
      </CharString>
      <CharString index="114">
        hlineto
        175 822 rlineto
        return
      </CharString>
      <CharString index="115">
        rlineto
        -388 hlineto
        return
      </CharString>
      <CharString index="116">
        -471 -21 return
      </CharString>
      <CharString index="117">
        512 108 -122 138 -323 hhcurveto
        -56 -43 -7 -6 -40 hvcurveto
        return
      </CharString>
      <CharString index="118">
        -81 callgsubr
        hintmask 00000000
        return
      </CharString>
      <CharString index="119">
        405 9 callsubr
        return
      </CharString>
      <CharString index="120">
        43 callgsubr
        531.350006104 -57 callsubr
        646 return
      </CharString>
      <CharString index="121">
        276 -22 callsubr
        8 callgsubr
        return
      </CharString>
      <CharString index="122">
        rmoveto
        -58 -85 callsubr
        -54 -12 return
      </CharString>
      <CharString index="123">
        -29 39 callgsubr
        return
      </CharString>
      <CharString index="124">
        1081 -23 callgsubr
        -289 hlineto
        -1089 -65 callsubr
        return
      </CharString>
      <CharString index="125">
        -42 callsubr
        7 callsubr
        return
      </CharString>
      <CharString index="126">
        rmoveto
        24 116 rlineto
        -393 hlineto
        -24 -116 rlineto
        endchar
      </CharString>
      <CharString index="127">
        -21 996 26 callgsubr
        return
      </CharString>
      <CharString index="128">
        rmoveto
        -2 callsubr
        return
      </CharString>
      <CharString index="129">
        rmoveto
        -40 callsubr
        return
      </CharString>
      <CharString index="130">
        38 92 19 101 110 vvcurveto
        -293 -1161 rmoveto
        return
      </CharString>
      <CharString index="131">
        20 callsubr
        389 7 callgsubr
        return
      </CharString>
      <CharString index="132">
        hlineto
        93 145 86 159 77 175 rrcurveto
        endchar
      </CharString>
      <CharString index="133">
        299 hstem
        return
      </CharString>
      <CharString index="134">
        -474 -344 254 1339 254 hstem
        return
      </CharString>
      <CharString index="135">
        242 -21 -20 41 -20 hstemhm
        80 291 -291 return
      </CharString>
      <CharString index="136">
        -492 207 -186 -21 return
      </CharString>
      <CharString index="137">
        9 callgsubr
        1625 -20 return
      </CharString>
      <CharString index="138">
        9 callsubr
        288 173 return
      </CharString>
      <CharString index="139">
        rlineto
        25 callsubr
        return
      </CharString>
      <CharString index="140">
        389 rlineto
        -270 hlineto
        -111 -389 rlineto
        return
      </CharString>
      <CharString index="141">
        300 -14 callsubr
        return
      </CharString>
      <CharString index="142">
        309 -14 callsubr
        return
      </CharString>
      <CharString index="143">
        39 14 -25 -59 6 callgsubr
        return
      </CharString>
      <CharString index="144">
        -12 callsubr
        128 return
      </CharString>
      <CharString index="145">
        180 177 180 return
      </CharString>
      <CharString index="146">
        34 -57 hhcurveto
        return
      </CharString>
      <CharString index="147">
        vstem
        90 690 rmoveto
        -57 -274 rlineto
        return
      </CharString>
      <CharString index="148">
        336 72 -33 250 -344 hhcurveto
        return
      </CharString>
      <CharString index="149">
        -270 975 270 vlineto
        endchar
      </CharString>
      <CharString index="150">
        173 hstem
        return
      </CharString>
      <CharString index="151">
        161 755 rlineto
        -2 callsubr
        return
      </CharString>
      <CharString index="152">
        140 -19 310 -289 -21 return
      </CharString>
      <CharString index="153">
        576 283 rlineto
        299 vlineto
        return
      </CharString>
      <CharString index="154">
        hintmask 00000000
        hintmask 11100000
        return
      </CharString>
      <CharString index="155">
        hstemhm
        96 1155 return
      </CharString>
      <CharString index="156">
        328 hstem
        return
      </CharString>
      <CharString index="157">
        289 hlineto
        return
      </CharString>
</ttFont>
